<?xml version="1.0" encoding="UTF-8" standalone="no"?>
<!-- Created with Inkscape (http://www.inkscape.org/) -->

<svg
   xmlns:dc="http://purl.org/dc/elements/1.1/"
   xmlns:cc="http://creativecommons.org/ns#"
   xmlns:rdf="http://www.w3.org/1999/02/22-rdf-syntax-ns#"
   xmlns:svg="http://www.w3.org/2000/svg"
   xmlns="http://www.w3.org/2000/svg"
   xmlns:sodipodi="http://sodipodi.sourceforge.net/DTD/sodipodi-0.dtd"
   xmlns:inkscape="http://www.inkscape.org/namespaces/inkscape"
   id="svg2"
   version="1.1"
   inkscape:version="0.48.1 r9760"
   width="765"
   height="990"
   xml:space="preserve"
   sodipodi:docname="Cheetah_Ink.ai"><metadata
     id="metadata8"><rdf:RDF><cc:Work
         rdf:about=""><dc:format>image/svg+xml</dc:format><dc:type
           rdf:resource="http://purl.org/dc/dcmitype/StillImage" /><dc:title></dc:title></cc:Work></rdf:RDF></metadata><defs
     id="defs6"><clipPath
       clipPathUnits="userSpaceOnUse"
       id="clipPath40"><path
         d="m 374.83887,-496.32813 c -0.58594,0.76905 -0.89844,1.24659 -0.9336,1.42823 0,0 -0.33007,1.86767 -0.33007,1.86767 0,0 -1.42774,2.47266 -1.42774,2.47266 0,0 0.76953,0.98877 0.76953,0.98877 0,0 -0.33008,1.15283 -0.33008,1.15283 0,0 -3.95507,5.27344 -3.95507,5.27344 0,0 -3.78907,6.15234 -3.78907,6.15234 0,0 -1.70312,1.81348 -1.70312,1.81348 0,0 -5.71289,7.5249 -5.71289,7.5249 0,0 -3.1875,4.5044 -3.1875,4.5044 0,0 -1.20703,1.15429 -1.20703,1.15429 0,0 -0.22071,0 -0.22071,0 0,0 -0.49414,-1.92334 -0.49414,-1.92334 0,0 -0.10937,-4.06494 -0.10937,-4.06494 0,0 0.82422,0 0.82422,0 0,0 -0.22071,-0.65918 -0.22071,-0.65918 0,0 0.22071,0 0.22071,0 0,0 0.54882,-2.03174 0.54882,-2.03174 0,0 -0.43945,-0.43945 -0.43945,-0.43945 0,0 0.21875,-0.98877 0.21875,-0.98877 0,0 0.2207,0 0.2207,0 0,0 0.33008,-0.49512 0.33008,-0.49512 0,0 0.21875,-3.35009 0.21875,-3.35009 0,0 1.1543,-2.3628 1.1543,-2.3628 0,0 0.6582,-2.91064 0.6582,-2.91064 0,0 0.43946,-0.93457 0.43946,-0.93457 0,0 -0.10938,-0.54932 -0.10938,-0.54932 0,0 0.33008,0 0.33008,0 0,0 0,-0.8789 0,-0.8789 0,0 0.54883,0.43945 0.54883,0.43945 0,0 0,-0.43945 0,-0.43945 0,-0.69434 0.16406,-1.35352 0.49414,-1.97754 0,0 0.8789,-1.64795 0.8789,-1.64795 0,0 0.54883,-1.92188 0.54883,-1.92188 0.62305,-0.29297 0.99024,-0.67676 1.09961,-1.15429 0,0 0.38477,-1.53809 0.38477,-1.53809 0,0 0.76953,-1.81201 0.76953,-1.81201 0,0 0.54883,0 0.54883,0 0.10937,-0.0352 0.41992,-1.1543 0.93359,-3.35156 0,0 0.98828,-2.4712 0.98828,-2.4712 0.69531,-0.21972 1.33594,-0.47461 1.92383,-0.76904 0,0 0,-0.82471 0,-0.82471 0,0 0.54883,-0.98877 0.54883,-0.98877 0,0 1.70312,0.10987 1.70312,0.10987 0,0 1.37305,-0.21973 1.37305,-0.21973 0,0 0.98828,0.76904 0.98828,0.76904 0,0 0.33008,-0.54931 0.33008,-0.54931 0,0 1.5918,1.09863 1.5918,1.09863 0,0 1.20898,0 1.20898,0 0,0 1.48438,0.10986 1.48438,0.10986 0,0 -0.11133,4.39453 -0.11133,4.39453 z m -57.54297,9.33838 c 0,0 -0.55078,4.83399 -0.55078,4.83399 0,0 -1.8125,5.43896 -1.8125,5.43896 0.36523,0.73389 0.55078,1.17334 0.55078,1.31836 0,0.18457 -0.0664,0.34864 -0.19336,0.49365 -0.12891,0.14795 -0.96094,0.36768 -2.49902,0.65918 0,0 0.5498,1.53809 0.5498,1.53809 0,0 -1.07031,2.99414 -1.07031,2.99414 -0.40625,-0.17871 -0.78516,-0.42041 -1.125,-0.74121 0,0 -1.8125,-0.21973 -1.8125,-0.21973 0,0 -1.70313,2.47119 -1.70313,2.47119 0,0 -1.59277,0.43946 -1.59277,0.43946 0,0 0,0.60498 0,0.60498 -1.7959,0.91553 -3.09668,1.39306 -3.90039,1.42822 0,0 -1.04395,1.04297 -1.04395,1.04297 0,0 -1.09863,0 -1.09863,0 0,0 -0.82422,0.76904 -0.82422,0.76904 0,0 -0.43945,-0.32959 -0.43945,-0.32959 0,0 -1.53809,0.65918 -1.53809,0.65918 0,0 0.33008,0 0.33008,0 0,0 -1.59277,0.10987 -1.59277,0.10987 0,0 -1.37403,1.15429 -1.37403,1.15429 0,0 -1.09863,0 -1.09863,0 0,0 0.33008,0.43946 0.33008,0.43946 0,0 -1.31836,-0.65918 -1.31836,-0.65918 0,0 -1.04395,0.10986 -1.04395,0.10986 0,0 -1.31835,0 -1.31835,0 0,0 -0.38477,0.65918 -0.38477,0.65918 -0.87891,0.21973 -2.06934,0.4043 -3.57031,0.54932 0,0 -0.21973,0.21972 -0.21973,0.21972 0,0 -0.82422,-0.76904 -0.82422,-0.76904 -0.40429,0.25635 -1.52051,0.65918 -3.35058,1.2085 0,0 -1.09864,-0.76905 -1.09864,-0.76905 0,0 0,-1.70361 0,-1.70361 0,0 -1.26367,-0.54932 -1.26367,-0.54932 0,0 0.54981,-0.21972 0.54981,-0.21972 0,0 -0.33008,-0.98877 -0.33008,-0.98877 0.33008,-0.10987 0.85937,-1.24366 1.59375,-3.40577 0,0 -0.54981,-1.20849 -0.54981,-1.20849 0,0 0,-1.37256 0,-1.37256 0,0 -1.04394,-2.80225 -1.04394,-2.80225 0,0 0.76953,-2.25146 0.76953,-2.25146 0,0 2.03223,-0.76904 2.03223,-0.76904 0,0 0,-0.49512 0,-0.49512 0,0 0.82421,-0.32959 0.82421,-0.32959 0,0 0.21973,0.82471 0.21973,0.82471 0,0 2.36231,-0.49512 2.36231,-0.49512 0,0 0.21972,-0.32959 0.21972,-0.32959 0,0 0.98828,0 0.98828,0 0,0 -0.21972,-1.2085 -0.21972,-1.2085 0,0 4.83398,0.10987 4.83398,0.10987 0,0 4.83399,-1.92188 4.83399,-1.92188 0,0 0.82421,-2.25293 0.82421,-2.25293 0.54883,-0.40137 1.20801,-1.00635 1.97754,-1.81201 0,0 2.85645,-1.53809 2.85645,-1.53809 0,0 0.98828,-0.8247 0.98828,-0.8247 0,0 1.37402,-0.65918 1.37402,-0.65918 0,0 0,-0.76905 0,-0.76905 0,0 0.65918,-1.04296 0.65918,-1.04296 0,0 -0.43945,-0.54932 -0.43945,-0.54932 0,0 -1.04395,-0.21973 -1.04395,-0.21973 0,0 0,-1.59375 0,-1.59375 0,0 0.21973,0 0.21973,0 0,0 0.27442,-0.98877 0.27442,-0.98877 0,0 0.76953,0 0.76953,0 0,0 0.10547,-2.42138 0.10547,-2.42138 0.375,0.0381 0.66992,0.0601 0.88085,0.0601 0.43946,0 0.74903,-0.0352 0.9336,-0.10987 0,0 0.21973,0 0.21973,0 0.5498,0 0.98925,-0.38525 1.31835,-1.1543 0.51172,-0.36474 0.9336,-0.54931 1.2627,-0.54931 0.0352,0 0.28418,0.13037 0.74121,0.38525 0.45703,0.25635 1.21777,0.38379 2.28027,0.38379 0,0 0.66016,0 0.66016,0 0,0 2.14258,-1.31836 2.14258,-1.31836 0.8789,0.14795 1.77539,0.61524 2.6914,1.40186 0.91407,0.78662 1.44532,1.58496 1.5918,2.38916 0,0 -2.4707,6.64599 -2.4707,6.64599 z m -35.53906,-1.31836 c 0,0 0.8789,0.21973 0.8789,0.21973 0.65918,-1.53808 1.18848,-2.67187 1.59278,-3.40576 0,0 -0.65918,-1.2085 -0.65918,-1.2085 0,0 0.98925,0 0.98925,0 0.25489,0 0.70313,-0.32959 1.34473,-0.98877 0.6416,-0.65918 1.01758,-1.46338 1.12695,-2.41699 0.54981,-0.2915 1.26368,-0.8042 2.14258,-1.53808 0,0 1.4834,0.65918 1.4834,0.65918 0,0 1.92188,-0.65918 1.92188,-0.65918 0,0 0.98925,0.32959 0.98925,0.32959 0,0 1.26367,0 1.26367,0 0,0 0.10938,1.92334 0.10938,1.92334 0,0 0.87891,1.31835 0.87891,1.31835 0,0 -0.32911,4.06495 -0.32911,4.06495 0,0 -2.58203,2.1416 -2.58203,2.1416 0,0 -1.92285,2.80224 -1.92285,2.80224 0,0 -3.625,0.32959 -3.625,0.32959 0,0 -1.75781,1.15284 -1.75781,1.15284 -1.50293,-0.25489 -2.41699,-0.47461 -2.74707,-0.65918 0,0 -1.09863,-0.60352 -1.09863,-0.60352 0,0 -0.32911,-2.0332 -0.32911,-2.0332 0,0 0.32911,-1.42823 0.32911,-1.42823 z m -41.42481,0 c 0,0 0.87891,0.21973 0.87891,0.21973 0.65918,-1.53808 1.18847,-2.67187 1.59277,-3.40576 0,0 -0.65918,-1.2085 -0.65918,-1.2085 0,0 0.98926,0 0.98926,0 0.25488,0 0.70312,-0.32959 1.34473,-0.98877 0.6416,-0.65918 1.0166,-1.46338 1.12695,-2.41699 0.54883,-0.2915 1.26367,-0.8042 2.14258,-1.53808 0,0 1.48242,0.65918 1.48242,0.65918 0,0 1.92285,-0.65918 1.92285,-0.65918 0,0 0.98926,0.32959 0.98926,0.32959 0,0 1.26269,0 1.26269,0 0,0 0.11036,1.92334 0.11036,1.92334 0,0 0.8789,1.31835 0.8789,1.31835 0,0 -0.33008,4.06495 -0.33008,4.06495 0,0 -2.58105,2.1416 -2.58105,2.1416 0,0 -1.92285,2.80224 -1.92285,2.80224 0,0 -3.62598,0.32959 -3.62598,0.32959 0,0 -1.75781,1.15284 -1.75781,1.15284 -1.50293,-0.25489 -2.41699,-0.47461 -2.7461,-0.65918 0,0 -1.09863,-0.60352 -1.09863,-0.60352 0,0 -0.33008,-2.0332 -0.33008,-2.0332 0,0 0.33008,-1.42823 0.33008,-1.42823 z m 229.03809,17.41407 c 0,0 -2.91211,-0.87891 -2.91211,-0.87891 0,0 -0.21875,0.76904 -0.21875,0.76904 0,0 -1.59375,0.10987 -1.59375,0.10987 -0.25586,0.14648 -0.64063,0.47607 -1.15235,0.98877 -0.51562,0.51416 -0.99023,0.78808 -1.42968,0.82324 0,0 -1.86719,1.42822 -1.86719,1.42822 -0.62305,0.47754 -1.15234,0.82471 -1.5918,1.04443 0,0 -1.48437,1.09864 -1.48437,1.09864 0,0 0,0.60351 0,0.60351 0,0 -0.54883,0.21973 -0.54883,0.21973 0,0 -0.33008,0.54932 -0.33008,0.54932 0,0 -1.04297,0 -1.04297,0 -0.73437,0.80713 -1.31836,1.33886 -1.75781,1.59375 -0.43945,0.25634 -0.86133,0.65918 -1.26367,1.20849 -0.98828,-0.47461 -1.84961,-1.04443 -2.58203,-1.70361 0.0351,-0.0352 0.17382,-0.18164 0.41015,-0.43945 0.23828,-0.25489 0.43164,-0.47461 0.57813,-0.65918 0,0 -0.43946,-3.51563 -0.43946,-3.51563 0,0 0.22071,-2.58105 0.22071,-2.58105 0,0 -0.98828,-2.58252 -0.98828,-2.58252 0,0 0.43945,-1.81201 0.43945,-1.81201 0,-2.08741 -1.00977,-3.69874 -3.02148,-4.83399 0,0 -0.22071,-0.98877 -0.22071,-0.98877 0,0 1.75781,-2.0332 1.75781,-2.0332 0,0 -0.76953,-3.56983 -0.76953,-3.56983 0,0 -0.21875,-2.85644 -0.21875,-2.85644 0,0 -1.15429,-2.25293 -1.15429,-2.25293 0,0 0.38476,-2.36133 0.38476,-2.36133 0,0 -1.37304,-2.80225 -1.37304,-2.80225 0,0 0,-1.20849 0,-1.20849 0,-0.0352 -0.0742,-0.23731 -0.21875,-0.60352 -0.14844,-0.36474 -0.29493,-0.58447 -0.43946,-0.65918 0,0 -0.60547,-0.32959 -0.60547,-0.32959 0,0 -1.75781,-0.21972 -1.75781,-0.21972 0,0 -1.8125,-1.04444 -1.8125,-1.04444 -0.54883,0.18457 -1.04297,0.45996 -1.48242,0.82471 0,0 -2.36328,1.2085 -2.36328,1.2085 0,0 -4.83399,3.40576 -4.83399,3.40576 0,0 0.22071,0.21972 0.22071,0.21972 0,0 -3.24219,1.59229 -3.24219,1.59229 0,0 -1.42774,1.26416 -1.42774,1.26416 -0.40429,0.32959 -0.64062,0.62402 -0.71289,0.87891 0,0 -0.43945,1.09863 -0.43945,1.09863 0,0 -0.43945,-0.21973 -0.43945,-0.21973 0,0 -0.38477,1.2085 -0.38477,1.2085 0,0 -0.2207,-0.21973 -0.2207,-0.21973 -0.10938,0.36621 -0.36719,0.78809 -0.76953,1.2627 0,0 -0.43946,-0.21973 -0.43946,-0.21973 0,0 -1.04296,1.53809 -1.04296,1.53809 -0.65821,0.0747 -1.37305,0.75146 -2.14258,2.0332 -0.76953,1.2832 -1.42774,2.21631 -1.97656,2.80078 0,0 0,0.49512 0,0.49512 0,0 -0.22071,0 -0.22071,0 0,0 -2.03125,2.80078 -2.03125,2.80078 0,0 -0.2207,0.76904 -0.2207,0.76904 -0.80664,0 -1.41016,-0.40136 -1.8125,-1.20849 0,0 0.21875,-1.81202 0.21875,-1.81202 -0.29297,-0.10986 -0.43945,-0.25488 -0.43945,-0.43945 0,-0.21972 0.14648,-0.32959 0.43945,-0.32959 0,0 0.2207,-4.06494 0.2207,-4.06494 0,0 1.37305,-5.87842 1.37305,-5.87842 0,0 0,-2.36133 0,-2.36133 0,0 0.43945,-2.0332 0.43945,-2.0332 0,0 0,-3.02051 0,-3.02051 0,0 0.98828,-1.81347 0.98828,-1.81347 0,0 0,-2.36133 0,-2.36133 0,0 0.55078,-1.2085 0.55078,-1.2085 0,0 0.27344,0.21973 0.27344,0.21973 0.36524,-0.36475 0.62305,-0.69434 0.76953,-0.98877 0,0 -0.2207,-0.49512 -0.2207,-0.49512 0,0 0,-2.58105 0,-2.58105 0,0 0.66016,-3.35156 0.66016,-3.35156 0.2539,-1.24366 0.78711,-2.67188 1.59375,-4.28467 0,0 0,-0.54932 0,-0.54932 0,0 0.21875,0.32959 0.21875,0.32959 0,-0.10986 0.33007,-0.82324 0.98828,-2.1416 0,0 0.33008,0 0.33008,0 0.33007,-0.62256 0.5664,-1.37402 0.71484,-2.25293 -0.0762,-0.14502 -0.11133,-0.40137 -0.11133,-0.76904 0,-0.69434 0.2207,-1.11621 0.66016,-1.2627 0,-1.28174 0.2539,-2.56201 0.76953,-3.84521 0,0 0.21875,0 0.21875,0 0.47461,-0.98877 0.82422,-1.99512 1.04492,-3.02198 0,0 0,-1.81201 0,-1.81201 0.32813,-0.54931 0.73047,-1.06201 1.20703,-1.53808 -0.14648,-0.29297 -0.21875,-0.53028 -0.21875,-0.71485 0,-0.2915 0.18164,-0.58447 0.54883,-0.8789 0.47461,-1.24366 0.96875,-2.17676 1.48242,-2.80079 0,0 0.33008,0.54932 0.33008,0.54932 0,0 0.71484,-0.54932 0.71484,-0.54932 3.29493,1.35499 5.34571,2.5459 6.15235,3.56983 0,0 0,-0.43945 0,-0.43945 1.13281,-0.0718 1.88476,-0.51123 2.25195,-1.31836 0,0 0.54883,0.32959 0.54883,0.32959 0,0 -0.21875,-0.54932 -0.21875,-0.54932 0,0 2.4707,-2.85645 2.4707,-2.85645 0,0 0.60547,0 0.60547,0 1.16992,0 1.75781,-1.00634 1.75781,-3.0205 0,0 -2.0332,-3.84522 -2.0332,-3.84522 -0.4043,-0.8042 -0.98828,-1.20849 -1.75781,-1.20849 0,0 -1.59375,0.43945 -1.59375,0.43945 0,0 -0.76758,-0.98877 -0.76758,-0.98877 0,0 -1.04492,0.21973 -1.04492,0.21973 0,0 -1.20703,-0.82471 -1.20703,-0.82471 0,0 -0.82422,0.60498 -0.82422,0.60498 0,0 -0.22071,-0.60498 -0.22071,-0.60498 0,0 -0.98828,0.60498 -0.98828,0.60498 0,0 -1.59375,-0.21973 -1.59375,-0.21973 0,0 -2.03125,0.43946 -2.03125,0.43946 -0.40429,0.51416 -0.91601,0.76904 -1.53906,0.76904 -0.73437,2.01416 -2.08789,3.15088 -4.06445,3.40576 -0.25781,0.21973 -0.78906,0.95361 -1.59375,2.19727 0,0 -1.20703,3.62548 -1.20703,3.62548 0,0 -0.22071,0 -0.22071,0 -0.40429,0.36622 -0.60351,0.78809 -0.60351,1.2627 0,0 -0.99024,2.80225 -0.99024,2.80225 0,0 0,0.65918 0,0.65918 0,1.09863 -0.29297,1.99658 -0.8789,2.69091 0,0 -0.60352,1.70362 -0.60352,1.70362 0,0 0,2.1416 0,2.1416 0,0 -0.54883,0.21973 -0.54883,0.21973 -0.2207,0.43945 -0.33007,0.8789 -0.33007,1.31835 0,0 0,1.81348 0,1.81348 0,0.76904 -0.14649,1.75781 -0.43946,2.96631 0,0 0,1.31836 0,1.31836 0,0 -0.82422,0.21973 -0.82422,0.21973 -0.29492,0.29443 -0.51367,0.89794 -0.6582,1.81201 0,0 -0.33008,0 -0.33008,0 0,0 0,0.43945 0,0.43945 0,0.29443 -0.25781,0.82471 -0.76953,1.59375 0,0 0.33008,0.21973 0.33008,0.21973 -0.2207,0.21972 -0.33008,0.47607 -0.33008,0.76904 0,0 0.33008,0 0.33008,0 -0.54883,0.76904 -0.82422,1.37256 -0.82422,1.81201 0,0 0.16406,0.43945 0.16406,0.43945 0,0 -0.38281,1.1543 -0.38281,1.1543 0,0 -0.33008,2.03174 -0.33008,2.03174 0,0 -0.2207,-0.27393 -0.2207,-0.27393 0,0 -0.76758,2.25147 -0.76758,2.25147 0,0 0,2.0332 0,2.0332 0,0 -1.04492,2.36133 -1.04492,2.36133 0.62305,1.31836 0.93359,2.25293 0.93359,2.80225 0,0.36621 -0.23828,0.60351 -0.71289,0.71338 0,0 -0.99023,1.31835 -0.99023,1.31835 0,0 0,1.48389 0,1.48389 0,0.0747 -0.0996,0.54053 -0.30274,1.40186 -0.20117,0.86133 -0.50195,1.60107 -0.90429,2.22363 0,0 -0.27539,1.97754 -0.27539,1.97754 0,0 0.27539,0 0.27539,0 0,0 -0.27539,0.60351 -0.27539,0.60351 0,0 0,0.76905 0,0.76905 0,0 0.27539,3.02197 0.27539,3.02197 0,0 -0.49414,0 -0.49414,0 0,0 0,0.21973 0,0.21973 0,0 0.21875,1.04297 0.21875,1.04297 0,0.29443 -0.1836,0.54931 -0.54883,0.76904 0,0 0,1.04443 0,1.04443 0,0 -0.92578,3.53906 -0.92578,3.53906 -0.75586,0.80274 -1.28907,1.2378 -1.59766,1.29493 0,0 -0.10937,0.98877 -0.10937,0.98877 0,0 -6.20704,5.27343 -6.20704,5.27343 0,0 0,0.60352 0,0.60352 -0.43945,0.0747 -1.41015,0.97119 -2.91211,2.69238 -0.47656,0 -1.6289,0.51416 -3.46093,1.53809 -0.21875,-0.40283 -0.64063,-0.95215 -1.26172,-1.64795 0,0 -3.46094,-9.44824 -3.46094,-9.44824 0,0 -0.82422,-6.64746 -0.82422,-6.64746 0,0 -0.10937,-5.4375 -0.10937,-5.4375 0,0 -0.87891,-5.27344 -0.87891,-5.27344 0,0 0.10938,-10.21729 0.10938,-10.21729 1.35351,-0.43945 2.12304,-0.75 2.30664,-0.93457 0,0 0.60351,-0.65918 0.60351,-0.65918 0,0 0.55078,0 0.55078,0 0.25391,-0.69433 0.74805,-1.33593 1.48243,-1.92187 0,0 0.10937,-1.09864 0.10937,-1.09864 0,0 -0.76758,-1.48388 -0.76758,-1.48388 0,0 -1.04492,-0.10987 -1.04492,-0.10987 0,0 -1.86719,0.43946 -1.86719,0.43946 -0.33008,-0.36475 -1.08203,-0.6211 -2.25,-0.76904 -1.17383,-0.14502 -1.88672,-0.18165 -2.14258,-0.10987 0,0 -3.07617,0.76904 -3.07617,0.76904 0,0 -1.31836,-0.43945 -1.31836,-0.43945 0,0 -0.33007,0.43945 -0.33007,0.43945 0,0 -1.26368,-0.32959 -1.26368,-0.32959 0,0 -1.70117,0.65918 -1.70117,0.65918 -0.51562,-0.32959 -0.99023,-0.51123 -1.42969,-0.54931 0,0 0,0.43945 0,0.43945 0,0 -1.59179,0 -1.59179,0 0,0 -1.59375,-0.10986 -1.59375,-0.10986 0,0 -0.76953,1.26416 -0.76953,1.26416 0,0 -1.70313,0 -1.70313,0 0,0 -1.20703,0.32959 -1.20703,0.32959 0,0 -1.48438,0 -1.48438,0 0,0 -2.4707,1.48242 -2.4707,1.48242 0,0 -2.58203,2.69238 -2.58203,2.69238 0,0 -1.92383,0.76905 -1.92383,0.76905 -0.62304,0.95361 -1.37304,1.81201 -2.25195,2.58105 0,0 -2.58203,3.51563 -2.58203,3.51563 0,0 -2.25196,4.83398 -2.25196,4.83398 0,0 0.33008,0.65918 0.33008,0.65918 0,0 0,0.76904 0,0.76904 0,0 -1.53711,2.85645 -1.53711,2.85645 0,0 0.21875,1.42822 0.21875,1.42822 -0.10937,0 -0.38476,0.56982 -0.82422,1.70361 0,0 -0.43945,-0.21972 -0.43945,-0.21972 0,0 -0.6582,2.91064 -0.6582,2.91064 0,0 0.76758,1.1543 0.76758,1.1543 0,0 -0.21875,0 -0.21875,0 0,0 -0.33008,0.98877 -0.33008,0.98877 -0.21875,0.0747 -0.75195,0.67822 -1.5918,1.81201 0,0 -1.42969,-0.21973 -1.42969,-0.21973 0,0 -0.43945,0.76905 -0.43945,0.76905 0.29297,0.25781 0.58594,1.26416 0.87891,3.02197 -0.51367,1.06348 -0.78907,1.74023 -0.82422,2.03174 0,0 -0.0547,1.04443 -0.0547,1.04443 0,0 -0.79687,2.05518 -0.79687,2.05518 -1.36914,0.59326 -2.29102,1.27881 -2.74805,2.06396 0,0.54932 -0.27539,0.82471 -0.82422,0.82471 0,0 -0.43945,0.98877 -0.43945,0.98877 0,0 -1.59375,0.54931 -1.59375,0.54931 -0.1836,0.4043 -0.62305,0.86133 -1.31836,1.37256 0,0 -0.76953,0.98877 -0.76953,0.98877 0,0 0.33007,0.27539 0.33007,0.27539 0,0 -2.58203,0.76905 -2.58203,0.76905 -0.91601,1.42822 -2.27148,2.43603 -4.06445,3.0205 0,0 -1.04297,0 -1.04297,0 -1.39453,0 -2.32812,0.49512 -2.80273,1.48389 0,0 -2.58203,1.09863 -2.58203,1.09863 0,0 -2.25196,-8.73486 -2.25196,-8.73486 0,0 1.04492,-10.16162 1.04492,-10.16162 0,0 -0.82421,-2.80225 -0.82421,-2.80225 0,0 0.21875,-1.37256 0.21875,-1.37256 0,0 1.37304,-0.76904 1.37304,-0.76904 0,0 0.22071,-4.83398 0.22071,-4.83398 0,0 1.37304,-1.81348 1.37304,-1.81348 0,0 0.43946,-4.00928 0.43946,-4.00928 0,0 0.76953,-1.26416 0.76953,-1.26416 0,0 -0.22071,-2.80078 -0.22071,-2.80078 0.51172,-0.58447 1.59375,-1.4458 3.24219,-2.58252 0,0 5.65625,-0.21972 5.65625,-0.21972 1.79297,-0.0718 2.80274,-0.27393 3.02149,-0.60352 0,0 3.40625,0.38379 3.40625,0.38379 0.80468,-0.54932 1.4082,-0.8584 1.8125,-0.93311 0,0 1.20898,-0.21972 1.20898,-0.21972 0,0 3.13086,-1.70362 3.13086,-1.70362 0,0 3.18555,-0.43945 3.18555,-0.43945 0,0 1.75781,-2.25146 1.75781,-2.25146 0,0 -1.86719,-2.25293 -1.86719,-2.25293 0,0 -2.0332,-0.21973 -2.0332,-0.21973 0,0 0,-0.32959 0,-0.32959 -1.57422,-0.21973 -3.04102,-0.32959 -4.39453,-0.32959 -1.17188,0 -2.89258,0.29443 -5.16211,0.87891 0,0 -2.47266,0 -2.47266,0 -0.76953,0 -1.72265,-0.32959 -2.85547,-0.98877 0,0 -1.75781,0.54931 -1.75781,0.54931 -0.55078,0 -0.82422,-0.41894 -0.82422,-1.26269 0,0 0,-0.54932 0,-0.54932 0,0 1.5918,-3.79101 1.5918,-3.79101 0,0 0,-1.81202 0,-1.81202 0,0 1.20898,-2.80224 1.20898,-2.80224 0,0 0,-1.04297 0,-1.04297 1.20899,-1.94092 1.8125,-3.2959 1.8125,-4.06494 0,0 0,-2.80225 0,-2.80225 0,0 1.59375,-3.13037 1.59375,-3.13037 -0.29492,-1.13379 -1.08203,-1.70361 -2.36328,-1.70361 -0.54883,0 -1.68359,0.53174 -3.4043,1.59375 -1.72265,1.06347 -2.94921,2.1416 -3.68164,3.24023 -1.0625,0.21973 -1.92187,0.82471 -2.58203,1.81348 0,0 -2.36133,4.50439 -2.36133,4.50439 0,0 0.33008,2.1416 0.33008,2.1416 -0.36718,0.73389 -0.82422,1.81348 -1.37304,3.2417 0,0 0.32812,-0.43945 0.32812,-0.43945 0,0 0,0.65918 0,0.65918 0,1.02539 -0.32812,1.55713 -0.98828,1.59229 -0.80664,1.42822 -1.26367,2.50927 -1.37305,3.24169 0,0 -1.20898,-0.21972 -1.20898,-0.21972 -0.6582,1.35498 -1.20703,2.10644 -1.64649,2.25146 -0.43945,0.14795 -0.93554,0.21973 -1.48437,0.21973 0,0 -0.60352,0 -0.60352,0 0,0 -2.0332,1.04443 -2.0332,1.04443 -0.18359,-0.14502 -0.51367,-0.21972 -0.98828,-0.21972 -0.36719,0 -0.6875,0.0747 -0.96289,0.21972 -0.27442,0.14649 -0.5957,0.21973 -0.95996,0.21973 -0.29395,0 -0.51465,-0.0352 -0.65918,-0.10986 0,0 -0.33008,0 -0.33008,0 -0.4043,0 -1.11719,0.14648 -2.1416,0.43945 0,0 -1.59278,0.43945 -1.59278,0.43945 0,0 -0.76953,-0.10986 -0.76953,-0.10986 -0.33593,0 -0.66113,0.21973 -0.97754,0.61377 0,0 -0.50293,-1.7124 -0.50293,-1.7124 0,0 -0.5498,0 -0.5498,0 0,0 -1.48242,-0.82471 -1.48242,-0.82471 0,0 -2.58203,0 -2.58203,0 0,0 -2.58203,-0.21973 -2.58203,-0.21973 0,0 -0.76856,-0.76904 -0.76856,-0.76904 0,0 -0.43945,0 -0.43945,0 0,0 0.21972,-0.54932 0.21972,-0.54932 0,0 -0.21972,0 -0.21972,0 0,0 -1.37403,-0.21972 -1.37403,-0.21972 0,0 -4.06445,1.20849 -4.06445,1.20849 0,0 -0.76953,1.1543 -0.76953,1.1543 0,0 -0.43945,0 -0.43945,0 0,0 -1.04297,0.65918 -1.04297,0.65918 0,0 -0.54981,0 -0.54981,0 -0.69629,1.02539 -1.30078,1.63037 -1.8125,1.81201 0,0 -0.76953,-0.21973 -0.76953,-0.21973 -0.69629,0.47754 -1.26269,1.06348 -1.70215,1.75782 0,0 -0.76953,0 -0.76953,0 0,0 -3.84472,4.28466 -3.84472,4.28466 0,0 -0.76954,1.59375 -0.76954,1.59375 0,0 -1.8125,0.21973 -1.8125,0.21973 0,0 0,1.81201 0,1.81201 0,0 -0.21972,0 -0.21972,0 0,0 -0.21973,0.76905 -0.21973,0.76905 0,0 0.21973,0.76904 0.21973,0.76904 0,0 -0.54981,0.82471 -0.54981,0.82471 0,0 0,0.65918 0,0.65918 0,0 1.37403,0 1.37403,0 0,0 -0.6045,1.81201 -0.6045,1.81201 0,0 -0.98925,0.54931 -0.98925,0.54931 0,0 -0.21973,0.98877 -0.21973,0.98877 0,0 0.21973,0.49512 0.21973,0.49512 0,0 -0.21973,1.75781 -0.21973,1.75781 0,0 -1.59277,0.60352 -1.59277,0.60352 0,0 -1.8125,3.2417 -1.8125,3.2417 0,0 -0.76953,2.58105 -0.76953,2.58105 0,0 -0.43946,0.21973 -0.43946,0.21973 0,0 -0.21972,2.14307 -0.21972,2.14307 0,0 0.21972,1.26269 0.21972,1.26269 0,0 -0.76855,0.43945 -0.76855,0.43945 0,0 -0.27442,1.31836 -0.27442,1.31836 0,0 0.49414,0.82471 0.49414,0.82471 0,0 -0.13867,0.90527 -0.13867,0.90527 0,0 -1.13183,-0.13623 -1.13183,-0.13623 0,0 -1.70215,2.47119 -1.70215,2.47119 0,0 -1.59375,0.43946 -1.59375,0.43946 0,0 0,0.60498 0,0.60498 -1.79492,0.91553 -3.0957,1.39306 -3.89942,1.42822 0,0 -1.04394,1.04297 -1.04394,1.04297 0,0 -1.09863,0 -1.09863,0 0,0 -0.82422,0.76904 -0.82422,0.76904 0,0 -0.43946,-0.32959 -0.43946,-0.32959 0,0 -1.53808,0.65918 -1.53808,0.65918 0,0 0.33008,0 0.33008,0 0,0 -1.59375,0.10987 -1.59375,0.10987 0,0 -1.37305,1.15429 -1.37305,1.15429 0,0 -1.09863,0 -1.09863,0 0,0 0.33007,0.43946 0.33007,0.43946 0,0 -1.31835,-0.65918 -1.31835,-0.65918 0,0 -1.04395,0.10986 -1.04395,0.10986 0,0 -1.31836,0 -1.31836,0 0,0 -0.38476,0.65918 -0.38476,0.65918 -0.87891,0.21973 -2.06934,0.4043 -3.57032,0.54932 0,0 -0.21972,0.21972 -0.21972,0.21972 0,0 -0.82422,-0.76904 -0.82422,-0.76904 -0.4043,0.25635 -1.52051,0.65918 -3.35059,1.2085 0,0 -1.09863,-0.76905 -1.09863,-0.76905 0,0 0,-1.70361 0,-1.70361 0,0 -1.26367,-0.54932 -1.26367,-0.54932 0,0 0.5498,-0.21972 0.5498,-0.21972 0,0 -0.33008,-0.98877 -0.33008,-0.98877 0.33008,-0.10987 0.85938,-1.24366 1.59278,-3.40577 0,0 -0.54883,-1.20849 -0.54883,-1.20849 0,0 0,-1.37256 0,-1.37256 0,0 -1.04395,-2.80225 -1.04395,-2.80225 0,0 0.76953,-2.25146 0.76953,-2.25146 0,0 2.03223,-0.76904 2.03223,-0.76904 0,0 0,-0.49512 0,-0.49512 0,0 0.82422,-0.32959 0.82422,-0.32959 0,0 0.21973,0.82471 0.21973,0.82471 0,0 2.36132,-0.49512 2.36132,-0.49512 0,0 0.21973,-0.32959 0.21973,-0.32959 0,0 0.98926,0 0.98926,0 0,0 -0.21973,-1.2085 -0.21973,-1.2085 0,0 4.83399,0.10987 4.83399,0.10987 0,0 4.83398,-1.92188 4.83398,-1.92188 0,0 0.82422,-2.25293 0.82422,-2.25293 0.54883,-0.40137 1.20801,-1.00635 1.97754,-1.81201 0,0 2.85644,-1.53809 2.85644,-1.53809 0,0 0.98829,-0.8247 0.98829,-0.8247 0,0 1.37304,-0.65918 1.37304,-0.65918 0,0 0,-0.76905 0,-0.76905 0,0 0.65918,-1.04296 0.65918,-1.04296 0,0 -0.43945,-0.54932 -0.43945,-0.54932 0,0 -1.04297,-0.21973 -1.04297,-0.21973 0,0 0,-1.59375 0,-1.59375 0,0 0.21973,0 0.21973,0 0,0 0.27441,-0.98877 0.27441,-0.98877 0,0 0.76856,0 0.76856,0 0,0 0.21972,-5.05371 0.21972,-5.05371 0,0 -1.8125,-1.81201 -1.8125,-1.81201 0,0 0,-1.04443 0,-1.04443 0,0 1.15332,-0.98877 1.15332,-0.98877 0,0 -0.82324,-2.80078 -0.82324,-2.80078 0,0 -0.5498,0 -0.5498,0 0,0 -1.4834,-0.82471 -1.4834,-0.82471 0,0 -2.58106,0 -2.58106,0 0,0 -2.58203,-0.21973 -2.58203,-0.21973 0,0 -0.76953,-0.76904 -0.76953,-0.76904 0,0 -0.43945,0 -0.43945,0 0,0 0.21972,-0.54932 0.21972,-0.54932 0,0 -0.21972,0 -0.21972,0 0,0 -1.37305,-0.21972 -1.37305,-0.21972 0,0 -4.06445,1.20849 -4.06445,1.20849 0,0 -0.76953,1.1543 -0.76953,1.1543 0,0 -0.43946,0 -0.43946,0 0,0 -1.04394,0.65918 -1.04394,0.65918 0,0 -0.54883,0 -0.54883,0 -0.69629,1.02539 -1.30078,1.63037 -1.8125,1.81201 0,0 -0.76953,-0.21973 -0.76953,-0.21973 -0.69629,0.47754 -1.26367,1.06348 -1.70313,1.75782 0,0 -0.76855,0 -0.76855,0 0,0 -3.84571,4.28466 -3.84571,4.28466 0,0 -0.76855,1.59375 -0.76855,1.59375 0,0 -1.8125,0.21973 -1.8125,0.21973 0,0 0,1.81201 0,1.81201 0,0 -0.21973,0 -0.21973,0 0,0 -0.21972,0.76905 -0.21972,0.76905 0,0 0.21972,0.76904 0.21972,0.76904 0,0 -0.5498,0.82471 -0.5498,0.82471 0,0 0,0.65918 0,0.65918 0,0 1.37305,0 1.37305,0 0,0 -0.60352,1.81201 -0.60352,1.81201 0,0 -0.98926,0.54931 -0.98926,0.54931 0,0 -0.21972,0.98877 -0.21972,0.98877 0,0 0.21972,0.49512 0.21972,0.49512 0,0 -0.21972,1.75781 -0.21972,1.75781 0,0 -1.59278,0.60352 -1.59278,0.60352 0,0 -1.8125,3.2417 -1.8125,3.2417 0,0 -0.76953,2.58105 -0.76953,2.58105 0,0 -0.43945,0.21973 -0.43945,0.21973 0,0 -0.21973,2.14307 -0.21973,2.14307 0,0 0.21973,1.26269 0.21973,1.26269 0,0 -0.76856,0.43945 -0.76856,0.43945 0,0 -0.27539,1.31836 -0.27539,1.31836 0,0 0.30371,0.50391 0.30371,0.50391 0,0 -0.0322,-0.009 -0.0322,-0.009 0,0 -0.21973,0.76904 -0.21973,0.76904 0,0 -1.59277,0.10987 -1.59277,0.10987 -0.25684,0.14648 -0.6416,0.47607 -1.15332,0.98877 -0.51465,0.51416 -0.98926,0.78808 -1.42871,0.82324 0,0 -1.86719,1.42822 -1.86719,1.42822 -0.62403,0.47754 -1.15332,0.82471 -1.59278,1.04443 0,0 -1.48339,1.09864 -1.48339,1.09864 0,0 0,0.60351 0,0.60351 0,0 -0.54981,0.21973 -0.54981,0.21973 0,0 -0.3291,0.54932 -0.3291,0.54932 0,0 -1.04395,0 -1.04395,0 -0.73339,0.80713 -1.31835,1.33886 -1.75781,1.59375 -0.43945,0.25634 -0.86133,0.65918 -1.26367,1.20849 -0.98828,-0.47461 -1.84961,-1.04443 -2.58105,-1.70361 0.0351,-0.0352 0.17285,-0.18164 0.41015,-0.43945 0.23731,-0.25489 0.43067,-0.47461 0.57813,-0.65918 0,0 -0.43946,-3.51563 -0.43946,-3.51563 0,0 0.21973,-2.58105 0.21973,-2.58105 0,0 -0.98828,-2.58252 -0.98828,-2.58252 0,0 0.43945,-1.81201 0.43945,-1.81201 0,-2.08741 -1.00879,-3.69874 -3.02148,-4.83399 0,0 -0.21973,-0.98877 -0.21973,-0.98877 0,0 1.75781,-2.0332 1.75781,-2.0332 0,0 -0.76953,-3.56983 -0.76953,-3.56983 0,0 -0.21972,-2.85644 -0.21972,-2.85644 0,0 -1.15332,-2.25293 -1.15332,-2.25293 0,0 0.38476,-2.36133 0.38476,-2.36133 0,0 -1.37305,-2.80225 -1.37305,-2.80225 0,0 0,-1.20849 0,-1.20849 0,-0.0352 -0.0752,-0.23731 -0.21972,-0.60352 -0.14746,-0.36474 -0.29492,-0.58447 -0.43946,-0.65918 0,0 -0.60449,-0.32959 -0.60449,-0.32959 0,0 -1.75781,-0.21972 -1.75781,-0.21972 0,0 -1.8125,-1.04444 -1.8125,-1.04444 -0.5498,0.18457 -1.04395,0.45996 -1.4834,0.82471 0,0 -2.3623,1.2085 -2.3623,1.2085 0,0 -4.83399,3.40576 -4.83399,3.40576 0,0 0.21973,0.21972 0.21973,0.21972 0,0 -3.24121,1.59229 -3.24121,1.59229 0,0 -1.42774,1.26416 -1.42774,1.26416 -0.40429,0.32959 -0.6416,0.62402 -0.71386,0.87891 0,0 -0.43946,1.09863 -0.43946,1.09863 0,0 -0.43945,-0.21973 -0.43945,-0.21973 0,0 -0.38477,1.2085 -0.38477,1.2085 0,0 -0.21972,-0.21973 -0.21972,-0.21973 -0.11035,0.36621 -0.36719,0.78809 -0.76953,1.2627 0,0 -0.43946,-0.21973 -0.43946,-0.21973 0,0 -1.04296,1.53809 -1.04296,1.53809 -0.65918,0.0747 -1.37403,0.75146 -2.14258,2.0332 -0.76953,1.2832 -1.42871,2.21631 -1.97754,2.80078 0,0 0,0.49512 0,0.49512 0,0 -0.21973,0 -0.21973,0 0,0 -2.03223,2.80078 -2.03223,2.80078 0,0 -0.21972,0.76904 -0.21972,0.76904 -0.80664,0 -1.41113,-0.40136 -1.81348,-1.20849 0,0 0.21973,-1.81202 0.21973,-1.81202 -0.29395,-0.10986 -0.43945,-0.25488 -0.43945,-0.43945 0,-0.21972 0.1455,-0.32959 0.43945,-0.32959 0,0 0.21972,-4.06494 0.21972,-4.06494 0,0 1.37403,-5.87842 1.37403,-5.87842 0,0 0,-2.36133 0,-2.36133 0,0 0.43945,-2.0332 0.43945,-2.0332 0,0 0,-3.02051 0,-3.02051 0,0 0.98828,-1.81347 0.98828,-1.81347 0,0 0,-2.36133 0,-2.36133 0,0 0.54981,-1.2085 0.54981,-1.2085 0,0 0.27441,0.21973 0.27441,0.21973 0.36426,-0.36475 0.62207,-0.69434 0.76856,-0.98877 0,0 -0.21973,-0.49512 -0.21973,-0.49512 0,0 0,-2.58105 0,-2.58105 0,0 0.65918,-3.35156 0.65918,-3.35156 0.25488,-1.24366 0.78711,-2.67188 1.59375,-4.28467 0,0 0,-0.54932 0,-0.54932 0,0 0.21973,0.32959 0.21973,0.32959 0,-0.10986 0.3291,-0.82324 0.98828,-2.1416 0,0 0.33008,0 0.33008,0 0.3291,-0.62256 0.5664,-1.37402 0.71386,-2.25293 -0.0752,-0.14502 -0.11035,-0.40137 -0.11035,-0.76904 0,-0.69434 0.21973,-1.11621 0.65918,-1.2627 0,-1.28174 0.25488,-2.56201 0.76953,-3.84521 0,0 0.21973,0 0.21973,0 0.47461,-0.98877 0.82422,-1.99512 1.04394,-3.02198 0,0 0,-1.81201 0,-1.81201 0.32911,-0.54931 0.73145,-1.06201 1.20801,-1.53808 -0.14746,-0.29297 -0.21973,-0.53028 -0.21973,-0.71485 0,-0.2915 0.18262,-0.58447 0.54981,-0.8789 0.47461,-1.24366 0.96875,-2.17676 1.48242,-2.80079 0,0 0.33008,0.54932 0.33008,0.54932 0,0 0.71387,-0.54932 0.71387,-0.54932 3.2959,1.35499 5.3457,2.5459 6.15234,3.56983 0,0 0,-0.43945 0,-0.43945 1.13379,-0.0718 1.88574,-0.51123 2.25195,-1.31836 0,0 0.54981,0.32959 0.54981,0.32959 0,0 -0.21973,-0.54932 -0.21973,-0.54932 0,0 2.47168,-2.85645 2.47168,-2.85645 0,0 0.60449,0 0.60449,0 1.1709,0 1.75782,-1.00634 1.75782,-3.0205 0,0 -2.03223,-3.84522 -2.03223,-3.84522 -0.4043,-0.8042 -0.98926,-1.20849 -1.75781,-1.20849 0,0 -1.59375,0.43945 -1.59375,0.43945 0,0 -0.76856,-0.98877 -0.76856,-0.98877 0,0 -1.04394,0.21973 -1.04394,0.21973 0,0 -1.20801,-0.82471 -1.20801,-0.82471 0,0 -0.82422,0.60498 -0.82422,0.60498 0,0 -0.21973,-0.60498 -0.21973,-0.60498 0,0 -0.98925,0.60498 -0.98925,0.60498 0,0 -1.59278,-0.21973 -1.59278,-0.21973 0,0 -2.03222,0.43946 -2.03222,0.43946 -0.4043,0.51416 -0.91602,0.76904 -1.53809,0.76904 -0.73437,2.01416 -2.08789,3.15088 -4.06543,3.40576 -0.25684,0.21973 -0.78809,0.95361 -1.59277,2.19727 0,0 -1.20801,3.62548 -1.20801,3.62548 0,0 -0.21973,0 -0.21973,0 -0.40429,0.36622 -0.60449,0.78809 -0.60449,1.2627 0,0 -0.98926,2.80225 -0.98926,2.80225 0,0 0,0.65918 0,0.65918 0,1.09863 -0.29394,1.99658 -0.8789,2.69091 0,0 -0.60352,1.70362 -0.60352,1.70362 0,0 0,2.1416 0,2.1416 0,0 -0.5498,0.21973 -0.5498,0.21973 -0.21973,0.43945 -0.32911,0.8789 -0.32911,1.31835 0,0 0,1.81348 0,1.81348 0,0.76904 -0.14746,1.75781 -0.43945,2.96631 0,0 0,1.31836 0,1.31836 0,0 -0.82422,0.21973 -0.82422,0.21973 -0.29492,0.29443 -0.51465,0.89794 -0.65918,1.81201 0,0 -0.33008,0 -0.33008,0 0,0 0,0.43945 0,0.43945 0,0.29443 -0.25683,0.82471 -0.76855,1.59375 0,0 0.3291,0.21973 0.3291,0.21973 -0.21972,0.21972 -0.3291,0.47607 -0.3291,0.76904 0,0 0.3291,0 0.3291,0 -0.54883,0.76904 -0.82324,1.37256 -0.82324,1.81201 0,0 0.16406,0.43945 0.16406,0.43945 0,0 -0.38379,1.1543 -0.38379,1.1543 0,0 -0.33008,2.03174 -0.33008,2.03174 0,0 -0.21972,-0.27393 -0.21972,-0.27393 0,0 -0.76856,2.25147 -0.76856,2.25147 0,0 0,2.0332 0,2.0332 0,0 -1.04394,2.36133 -1.04394,2.36133 0.62207,1.31836 0.93359,2.25293 0.93359,2.80225 0,0.36621 -0.23926,0.60351 -0.71387,0.71338 0,0 -0.98925,1.31835 -0.98925,1.31835 0,0 0,1.48389 0,1.48389 0,0.0747 -0.10059,0.54053 -0.30274,1.40186 -0.20215,0.86133 -0.50293,1.60107 -0.90527,2.22363 0,0 -0.27441,1.97754 -0.27441,1.97754 0,0 0.27441,0 0.27441,0 0,0 -0.27441,0.60351 -0.27441,0.60351 0,0 0,0.76905 0,0.76905 0,0 0.27441,3.02197 0.27441,3.02197 0,0 -0.49414,0 -0.49414,0 0,0 0,0.21973 0,0.21973 0,0 0.21973,1.04297 0.21973,1.04297 0,0.29443 -0.18458,0.54931 -0.54981,0.76904 0,0 0,1.04443 0,1.04443 0,0 -0.98828,3.78955 -0.98828,3.78955 0,0 0.98828,1.59375 0.98828,1.59375 0,0 -0.98828,0.65918 -0.98828,0.65918 0,0 -0.43945,1.15283 -0.43945,1.15283 0,0 0.21972,1.75782 0.21972,1.75782 0,0 -0.21972,-0.32959 -0.21972,-0.32959 0,0 -0.82422,3.62549 -0.82422,3.62549 0,0 0,0.54931 0,0.54931 0,0 -0.21973,0 -0.21973,0 0,0 -0.49609,1.59375 -0.49609,1.59375 0,0 -0.26758,0 -0.26758,0 0,0 -1.42871,0.54932 -1.42871,0.54932 0,0 -2.36133,0.43945 -2.36133,0.43945 0,0 -0.21973,0.65918 -0.21973,0.65918 0,0 -1.04394,-0.21973 -1.04394,-0.21973 -1.09863,0.58594 -2.03223,1.00782 -2.80176,1.2627 0,0 -0.76855,-0.21973 -0.76855,-0.21973 0,0 0.21972,0.43946 0.21972,0.43946 -1.57617,0.51416 -2.85644,1.11914 -3.8457,1.81347 0,0 -1.8125,-0.21972 -1.8125,-0.21972 0,0 -0.21973,0.21972 -0.21973,0.21972 0,0 -0.76953,0 -0.76953,0 0,0 -1.8125,0.76905 -1.8125,0.76905 0,0 -3.02148,0.54931 -3.02148,0.54931 0,0 -0.98828,0.43946 -0.98828,0.43946 0,0 0,-0.43946 0,-0.43946 0,0 -1.8125,1.2627 -1.8125,1.2627 0,0 -1.59375,0 -1.59375,0 0,0 -0.76856,-0.82324 -0.76856,-0.82324 0,0 -0.43945,0.27392 -0.43945,0.27392 0,0 -2.25196,-4.06494 -2.25196,-4.06494 0,0 0,-2.58105 0,-2.58105 0,0 -0.82421,-1.04444 -0.82421,-1.04444 0,0 0,-0.65918 0,-0.65918 0,0 -0.98926,-6.97558 -0.98926,-6.97558 0,0 0.5498,-7.41651 0.5498,-7.41651 0,0 0.87891,-2.36133 0.87891,-2.36133 0,0 0.49414,-2.47265 0.49414,-2.47265 0,0 0.87891,-2.03174 0.87891,-2.03174 0,0 0.76953,-2.58252 0.76953,-2.58252 0,0 2.25195,-2.69092 2.25195,-2.69092 0,0 0.21973,-0.82471 0.21973,-0.82471 0,0 0.82422,-1.31835 0.82422,-1.31835 0,0 2.03222,-0.21973 2.03222,-0.21973 0,0 0.54883,0.54932 0.54883,0.54932 0,0 0,0.98876 0,0.98876 0,0 0.43945,1.04444 0.43945,1.04444 0,0 0.76953,0.21972 0.76953,0.21972 0,0 1.8125,-1.26416 1.8125,-1.26416 0,0 0.76954,0 0.76954,0 0,0 1.8125,-0.32959 1.8125,-0.32959 0,0 1.26367,0 1.26367,0 0,0 0,-2.03173 0,-2.03173 0,0 0.98828,-0.43946 0.98828,-0.43946 0,0 1.04394,0 1.04394,0 0,0 0.76856,-1.59375 0.76856,-1.59375 0,0 0.98926,0.27539 0.98926,0.27539 0.65918,-0.47461 1.4082,-0.89648 2.25195,-1.26416 0.65918,-1.17041 1.18848,-1.92187 1.59277,-2.25146 0,0 0.54981,-0.98877 0.54981,-0.98877 0,0 0,-1.37402 0,-1.37402 0,0 -1.75781,-0.76905 -1.75781,-0.76905 0,0 0,-0.43945 0,-0.43945 -0.73438,-0.14502 -1.3379,-0.41895 -1.8125,-0.82324 0,0 0,-0.76905 0,-0.76905 0,0 -1.04395,-0.43945 -1.04395,-0.43945 0,0 -1.31836,0 -1.31836,0 0,0 -2.03223,0.65918 -2.03223,0.65918 0,0 -1.81347,0 -1.81347,0 0,0 -0.21973,-0.21973 -0.21973,-0.21973 0,0 -2.25195,0.98877 -2.25195,0.98877 0,0 -2.47168,0 -2.47168,0 0,0 -3.13086,1.04297 -3.13086,1.04297 0,0 -4.17481,2.58252 -4.17481,2.58252 0,0 -2.80175,3.02051 -2.80175,3.02051 0,0 -2.03223,1.37402 -2.03223,1.37402 0,0 -1.81348,2.03174 -1.81348,2.03174 0,0 0,1.2085 0,1.2085 -0.40429,0.51416 -0.7334,1.37402 -0.98828,2.58252 0,0 -2.03222,3.2959 -2.03222,3.2959 0,0 0,0.76904 0,0.76904 0,0 -1.59375,4.61426 -1.59375,4.61426 0,0 0.33007,1.81201 0.33007,1.81201 0,0 -0.5498,-0.82324 -0.5498,-0.82324 0,0 0,1.04297 0,1.04297 0,0 -1.48242,6.86718 -1.48242,6.86718 0,0 0.21972,2.58106 0.21972,2.58106 0,0 -0.76953,1.31836 -0.76953,1.31836 0,0 0,1.48388 0,1.48388 0,0 0.21973,0.76905 0.21973,0.76905 0,0 -0.54883,2.96631 -0.54883,2.96631 0,0 0.3291,7.30517 0.3291,7.30517 0,0 0.76953,0 0.76953,0 0,0 -0.21972,0.98877 -0.21972,0.98877 0,0 0.21972,2.80225 0.21972,2.80225 0,0 4.28418,5.05371 4.28418,5.05371 0,0 1.15332,1.59228 1.15332,1.59228 0,0 2.25293,1.04444 2.25293,1.04444 0,0 2.80078,-0.82471 2.80078,-0.82471 0,0 0.76954,0 0.76954,0 0,0 1.48339,-0.98877 1.48339,-0.98877 0,0 1.8125,0.21973 1.8125,0.21973 0,0 0.21973,-1.04297 0.21973,-1.04297 0,0 0.3291,0.60351 0.3291,0.60351 0,0 1.20899,-1.04297 1.20899,-1.04297 0,0 1.26367,0 1.26367,0 1.06055,-0.65918 1.77539,-1.02685 2.1416,-1.09863 0,0 1.20898,-0.21972 1.20898,-0.21972 0,0 1.26368,-0.71485 1.26368,-0.71485 0,0 0.98828,-0.32959 0.98828,-0.32959 0,0 0.60449,-0.76904 0.60449,-0.76904 0,0 1.75781,-0.43945 1.75781,-0.43945 0,0 0.49414,-0.54932 0.49414,-0.54932 0,0 0.98926,0.32959 0.98926,0.32959 0,0 6.42676,-3.18604 6.42676,-3.18604 0,0 1.31836,-0.21972 1.31836,-0.21972 0,0 1.26367,0 1.26367,0 0.21973,-0.29151 0.73145,-0.54932 1.53809,-0.76905 0.47461,-0.69433 0.95117,-1.17041 1.42773,-1.42822 0,0 0.27734,-0.15967 0.27734,-0.15967 -0.24023,0.86426 -0.41308,1.90723 -0.50195,3.18164 0,0 -0.33008,0 -0.33008,0 0.14551,0.43946 0.21973,0.87891 0.21973,1.31836 0,0.47461 -0.14746,0.96827 -0.43945,1.48243 0,0 0.21972,0 0.21972,0 -0.29394,1.17187 -0.46777,1.90283 -0.52246,2.19726 -0.0557,0.29297 -0.21094,0.49512 -0.46582,0.60498 0.36426,0.58447 0.54883,1.04297 0.54883,1.37256 0,0.54932 -0.25684,1.02393 -0.76856,1.42822 0,0 0.98829,1.48389 0.98829,1.48389 0.43945,-0.43945 0.78711,-0.86133 1.04394,-1.26416 0,0 1.53809,0.21973 1.53809,0.21973 0,0 1.04394,-1.2085 1.04394,-1.2085 0,0 0.98828,0 0.98828,0 0,0 0.21973,-1.81201 0.21973,-1.81201 0.98926,0 1.66602,-0.4043 2.03223,-1.2085 0,0 0.5498,0 0.5498,0 0,0 0.43945,-1.37402 0.43945,-1.37402 0,0 0.6045,0.32959 0.6045,0.32959 0,0 1.59277,-1.42822 1.59277,-1.42822 0.43945,-0.4043 0.69434,-0.71338 0.76856,-0.93311 0,0 0.43945,-1.2085 0.43945,-1.2085 0,0 0.5498,-0.8247 0.5498,-0.8247 0,0 0,-1.81201 0,-1.81201 0,0 0.65918,-1.97754 0.65918,-1.97754 0,0 0.38477,0 0.38477,0 0,0 1.75781,-1.81348 1.75781,-1.81348 0,0 -1.53809,-1.2627 -1.53809,-1.2627 0,0 0.76856,-3.02197 0.76856,-3.02197 0.95117,-0.91406 1.70312,-2.12256 2.25195,-3.62549 0.98926,-0.62109 1.59375,-1.48242 1.81348,-2.58105 1.28027,-0.87891 1.95703,-1.88526 2.03223,-3.02197 0,0 0.76855,-0.54932 0.76855,-0.54932 0,0 0.76953,-1.81201 0.76953,-1.81201 0,0 0.82422,-0.21973 0.82422,-0.21973 0.0723,-0.14502 0.10938,-0.32959 0.10938,-0.54931 0,0 -0.10938,-0.71485 -0.10938,-0.71485 0,-0.65918 0.54883,-1.31836 1.64746,-1.97754 0,0 0,-0.38379 0,-0.38379 1.31836,-0.1831 2.03223,-1.11621 2.14258,-2.80224 0,0 0.21973,0.32959 0.21973,0.32959 0,0 0.21972,-0.98877 0.21972,-0.98877 0,0 1.04395,0 1.04395,0 0,0 1.59277,-0.76905 1.59277,-0.76905 1.31836,0.14795 1.97754,0.69727 1.97754,1.64795 0,0.25782 -0.14746,0.64161 -0.43945,1.1543 0,0 0.21972,0 0.21972,0 0,1.75781 0.41993,3.11279 1.26368,4.06494 0,0 2.36132,2.80078 2.36132,2.80078 0,0 -1.15332,4.01075 -1.15332,4.01075 0,0 0.6045,6.42626 0.6045,6.42626 0,0 -0.21973,1.81348 -0.21973,1.81348 0,0 1.42773,2.03174 1.42773,2.03174 0,0 0,2.80225 0,2.80225 0,0 0.43946,1.48242 0.43946,1.48242 0,0 -0.10938,0.54931 -0.10938,0.54931 0,0.95362 0.14453,2.67188 0.43945,5.16358 0,0 0,0.43945 0,0.43945 0,0.21973 0.35547,0.87891 1.07032,1.97754 0.71386,1.09863 1.38183,1.64795 2.00586,1.64795 1.50097,0 2.3623,-0.42188 2.58203,-1.2627 0,0 0.54883,0.21973 0.54883,0.21973 0,0 0.21972,-0.54932 0.21972,-0.54932 1.79297,-0.65918 2.8916,-0.98876 3.2959,-0.98876 0,0 0,-0.43946 0,-0.43946 0,0 1.97754,-0.27539 1.97754,-0.27539 0,0 1.59277,-1.75781 1.59277,-1.75781 0.8418,-0.0366 1.66602,-0.78809 2.47266,-2.25147 1.09863,0 2.06738,-0.38525 2.91113,-1.15429 0,0 1.15332,-0.65918 1.15332,-0.65918 0,0 0.33008,-1.70215 0.33008,-1.70215 0.51172,0 1.37305,-0.29297 2.58106,-0.87891 0,0 0,-0.43945 0,-0.43945 1.24414,-0.14502 2.34277,-0.34717 3.29589,-0.60498 0,0 0.21973,-0.65918 0.21973,-0.65918 0,0 0.39258,-0.21826 0.39258,-0.21826 0,0 0.21484,0.87744 0.21484,0.87744 0,0 -0.54883,2.0332 -0.54883,2.0332 0,0 0.54883,2.47119 0.54883,2.47119 0,0 -0.3291,1.59375 -0.3291,1.59375 0,0 0.82422,2.03174 0.82422,2.03174 0,0 -0.21973,1.31836 -0.21973,1.31836 0,0 0.21973,0.71485 0.21973,0.71485 0,0 -0.21973,1.31835 -0.21973,1.31835 1.31836,1.35352 2.04981,2.04932 2.19727,2.08741 0,0 0.60351,0.16406 0.60351,0.16406 0,0 0.76954,-0.98877 0.76954,-0.98877 0,0 1.48339,0.54932 1.48339,0.54932 0,0 1.09864,-1.37256 1.09864,-1.37256 0,0 1.48242,-0.21973 1.48242,-0.21973 0,0 0.98926,0 0.98926,0 0,0 0.54882,-0.54932 0.54882,-0.54932 1.35352,-0.14794 2.23243,-0.32959 2.63672,-0.54931 0,0 1.20899,-0.65918 1.20899,-0.65918 0,0 1.4834,0 1.4834,0 0,0 0.54882,-1.26416 0.54882,-1.26416 0,0 0.21973,0.21972 0.21973,0.21972 0,0 0.76953,-0.21972 0.76953,-0.21972 0,0 0.60352,0.21972 0.60352,0.21972 0,0 0.65918,-0.54931 0.65918,-0.54931 0,0 1.59375,0 1.59375,0 0,0 0.76855,0.54931 0.76855,0.54931 0.98926,-0.54931 1.95801,-0.95361 2.91114,-1.20849 0,0 0.82421,-0.71338 0.82421,-0.71338 0,0 0.65918,0 0.65918,0 0,0 1.09864,-0.54932 1.09864,-0.54932 0,0 1.8125,0 1.8125,0 0,0 1.26367,-1.20849 1.26367,-1.20849 0,0 0.76953,0.43945 0.76953,0.43945 0.0352,-0.0732 0.67676,-0.34717 1.92187,-0.82471 0,0 0.65918,-0.76904 0.65918,-0.76904 0,0 1.70313,0.21973 1.70313,0.21973 0,0 0.65918,-1.53809 0.65918,-1.53809 0,0 2.14258,0.21973 2.14258,0.21973 0,0 0.43945,-1.2627 0.43945,-1.2627 0,0 1.59277,-0.10986 1.59277,-0.10986 0,0 1.42871,-1.48389 1.42871,-1.48389 0,0 1.57715,-0.19629 1.57715,-0.19629 0,0 0.0225,0.0864 0.0225,0.0864 0,0 -0.5498,2.0332 -0.5498,2.0332 0,0 0.5498,2.47119 0.5498,2.47119 0,0 -0.33007,1.59375 -0.33007,1.59375 0,0 0.82421,2.03174 0.82421,2.03174 0,0 -0.21972,1.31836 -0.21972,1.31836 0,0 0.21972,0.71485 0.21972,0.71485 0,0 -0.21972,1.31835 -0.21972,1.31835 1.31836,1.35352 2.0498,2.04932 2.19726,2.08741 0,0 0.6045,0.16406 0.6045,0.16406 0,0 0.76855,-0.98877 0.76855,-0.98877 0,0 1.4834,0.54932 1.4834,0.54932 0,0 1.09863,-1.37256 1.09863,-1.37256 0,0 1.4834,-0.21973 1.4834,-0.21973 0,0 0.98828,0 0.98828,0 0,0 0.54981,-0.54932 0.54981,-0.54932 1.35351,-0.14794 2.23242,-0.32959 2.63671,-0.54931 0,0 1.20801,-0.65918 1.20801,-0.65918 0,0 1.4834,0 1.4834,0 0,0 0.54883,-1.26416 0.54883,-1.26416 0,0 0.21973,0.21972 0.21973,0.21972 0,0 0.76953,-0.21972 0.76953,-0.21972 0,0 0.60449,0.21972 0.60449,0.21972 0,0 0.65918,-0.54931 0.65918,-0.54931 0,0 1.59277,0 1.59277,0 0,0 0.76856,0.54931 0.76856,0.54931 0.98925,-0.54931 1.958,-0.95361 2.91211,-1.20849 0,0 0.82324,-0.71338 0.82324,-0.71338 0,0 0.65918,0 0.65918,0 0,0 1.09863,-0.54932 1.09863,-0.54932 0,0 1.81348,0 1.81348,0 0,0 1.26269,-1.20849 1.26269,-1.20849 0,0 0.76953,0.43945 0.76953,0.43945 0.0352,-0.0732 0.67676,-0.34717 1.92286,-0.82471 0,0 0.65918,-0.76904 0.65918,-0.76904 0,0 1.70214,0.21973 1.70214,0.21973 0,0 0.65918,-1.53809 0.65918,-1.53809 0,0 2.14258,0.21973 2.14258,0.21973 0,0 0.43945,-1.2627 0.43945,-1.2627 0,0 1.59278,-0.10986 1.59278,-0.10986 0,0 1.42871,-1.48389 1.42871,-1.48389 0,0 0.93164,-0.11572 0.93164,-0.11572 1.17578,6.85986 1.87402,10.56885 2.08691,11.10205 0,0 0.82422,1.75781 0.82422,1.75781 0,0 0.76856,3.35157 0.76856,3.35157 0,0 2.58203,1.70263 2.58203,1.70263 0,0 1.26367,-0.98926 1.26367,-0.98926 0,0 1.59375,-0.21972 1.59375,-0.21972 0,0 6.97461,-2.74658 6.97461,-2.74658 0.58594,-0.21973 0.9707,-0.42188 1.1543,-0.60352 0,0 1.04297,-1.04443 1.04297,-1.04443 0,0 2.52734,-2.03174 2.52734,-2.03174 0,0 1.97851,-0.21973 1.97851,-0.21973 0,0 3.29493,-2.96631 3.29493,-2.96631 0,0 1.53906,-0.43945 1.53906,-0.43945 0,0 1.97656,-0.87891 1.97656,-0.87891 0.51172,-0.21972 0.9336,-0.58447 1.26367,-1.09863 0,0 0.9336,-1.26416 0.9336,-1.26416 0,0 1.11914,-0.7793 1.11914,-0.7793 0,0 -0.37305,0.7793 -0.37305,0.7793 0,0 1.5918,10.43701 1.5918,10.43701 0,0 3.68164,-0.10986 3.68164,-0.10986 0,0 3.51562,-1.31836 3.51562,-1.31836 0,0 0.21875,-1.04297 0.21875,-1.04297 0,0 0.66016,0 0.66016,0 0,0 0.76758,-0.54932 0.76758,-0.54932 0,0 1.59375,-3.62548 1.59375,-3.62548 0,0 1.59375,0 1.59375,0 0,0 0.10937,-1.64795 0.10937,-1.64795 0,0 0.98828,-0.32959 0.98828,-0.32959 0,0 0.9336,-3.18604 0.9336,-3.18604 0,0 0.66015,0 0.66015,0 0,0 0.76758,-1.92334 0.76758,-1.92334 0,0 0.43946,0.60498 0.43946,0.60498 0,0 0.49609,-0.8247 0.49609,-0.8247 0.54883,-0.21973 1.26172,-0.65918 2.14062,-1.31836 0,0 -0.27343,-0.43946 -0.27343,-0.43946 0,0 0.93359,-0.49365 0.93359,-0.49365 0,0 0.54883,-2.25293 0.54883,-2.25293 0,0 1.26367,-0.43945 1.26367,-0.43945 0,0 -0.49414,-0.65918 -0.49414,-0.65918 0,0 0.43945,-1.09863 0.43945,-1.09863 0.21875,-0.54932 0.71485,-1.02393 1.48242,-1.42823 0,0 1.1543,-0.60351 1.1543,-0.60351 0,0 0.33008,-2.3628 0.33008,-2.3628 0,0 0.43945,0.21973 0.43945,0.21973 1.02344,-1.64795 1.55469,-2.58105 1.5918,-2.80078 0,0 0.2207,0 0.2207,0 0,0 0,-0.49512 0,-0.49512 0,0 0.54883,0.21973 0.54883,0.21973 0,0 0.2207,-0.76904 0.2207,-0.76904 0,0 0.76758,0.32959 0.76758,0.32959 0,0 1.48438,-3.78955 1.48438,-3.78955 0,0 0.54883,-0.2754 0.54883,-0.2754 0,0 0,0.2754 0,0.2754 0,0 1.15429,-0.71485 1.15429,-0.71485 0,0 1.70117,1.04444 1.70117,1.04444 0,0 -0.27343,2.03173 -0.27343,2.03173 0,1.09864 0.52929,2.71143 1.59179,4.83399 0,0 -0.54882,0.10986 -0.54882,0.10986 0,0 0.76953,2.58252 0.76953,2.58252 0,0 -0.33008,2.91065 -0.33008,2.91065 0,0 3.51562,7.85595 3.51562,7.85595 0,0 3.68164,5.98682 3.68164,5.98682 0.73047,1.17187 1.69922,1.92334 2.90821,2.25293 0,0 1.59375,-0.43945 1.59375,-0.43945 0,0 0.54883,-1.59375 0.54883,-1.59375 0,0 2.58203,-0.10987 2.58203,-0.10987 1.28125,-1.57471 1.88476,-2.6543 1.8125,-3.24023 0,0 0.82422,-0.21973 0.82422,-0.21973 0,0 0.8789,-1.70361 0.8789,-1.70361 0,0 -0.33008,-0.82324 -0.33008,-0.82324 0,0 0.76953,0 0.76953,0 0,0 0.21875,-0.76905 0.21875,-0.76905 0,0 1.48438,-0.43945 1.48438,-0.43945 0,0 0.6582,-1.1543 0.6582,-1.1543 0,0 0.10938,0.27539 0.10938,0.27539 0,0 0.43945,-0.8247 0.43945,-0.8247 1.64844,-0.8042 2.82031,-1.4458 3.51563,-1.92188 0,0 0.55078,-1.42822 0.55078,-1.42822 0,0 2.79297,-2.58985 2.79297,-2.58985 0,0 -0.0508,0.22706 -0.0508,0.22706 0,0 0,0.54931 0,0.54931 0,0 -0.2207,0 -0.2207,0 0,0 -0.76953,2.47266 -0.76953,2.47266 0,0 0,0.76904 0,0.76904 0,0 -0.32812,1.70215 -0.32812,1.70215 0,0.29443 0.10937,0.67969 0.32812,1.1543 -0.54883,0.98877 -0.89844,2.52685 -1.04297,4.61425 0,0 -0.33008,0 -0.33008,0 0.14649,0.43946 0.22071,0.87891 0.22071,1.31836 0,0.47461 -0.14844,0.96827 -0.43946,1.48243 0,0 0.21875,0 0.21875,0 -0.29297,1.17187 -0.46679,1.90283 -0.52148,2.19726 -0.0566,0.29297 -0.21094,0.49512 -0.4668,0.60498 0.36524,0.58447 0.54883,1.04297 0.54883,1.37256 0,0.54932 -0.25586,1.02393 -0.76758,1.42822 0,0 0.98828,1.48389 0.98828,1.48389 0.43946,-0.43945 0.78711,-0.86133 1.04297,-1.26416 0,0 1.53906,0.21973 1.53906,0.21973 0,0 1.04297,-1.2085 1.04297,-1.2085 0,0 0.98828,0 0.98828,0 0,0 0.22071,-1.81201 0.22071,-1.81201 0.98828,0 1.66601,-0.4043 2.03125,-1.2085 0,0 0.55078,0 0.55078,0 0,0 0.43945,-1.37402 0.43945,-1.37402 0,0 0.60352,0.32959 0.60352,0.32959 0,0 1.59375,-1.42822 1.59375,-1.42822 0.43945,-0.4043 0.69336,-0.71338 0.76758,-0.93311 0,0 0.43945,-1.2085 0.43945,-1.2085 0,0 0.55078,-0.8247 0.55078,-0.8247 0,0 0,-1.81201 0,-1.81201 0,0 0.6582,-1.97754 0.6582,-1.97754 0,0 0.38477,0 0.38477,0 0,0 1.75781,-1.81348 1.75781,-1.81348 0,0 -1.53711,-1.2627 -1.53711,-1.2627 0,0 0.76758,-3.02197 0.76758,-3.02197 0.95117,-0.91406 1.70313,-2.12256 2.25195,-3.62549 0.99024,-0.62109 1.59375,-1.48242 1.81446,-2.58105 1.27929,-0.87891 1.95703,-1.88526 2.03125,-3.02197 0,0 0.76953,-0.54932 0.76953,-0.54932 0,0 0.76953,-1.81201 0.76953,-1.81201 0,0 0.82422,-0.21973 0.82422,-0.21973 0.0723,-0.14502 0.10937,-0.32959 0.10937,-0.54931 0,0 -0.10937,-0.71485 -0.10937,-0.71485 0,-0.65918 0.54883,-1.31836 1.64648,-1.97754 0,0 0,-0.38379 0,-0.38379 1.31836,-0.1831 2.03321,-1.11621 2.14258,-2.80224 0,0 0.2207,0.32959 0.2207,0.32959 0,0 0.21875,-0.98877 0.21875,-0.98877 0,0 1.04493,0 1.04493,0 0,0 1.59179,-0.76905 1.59179,-0.76905 1.31836,0.14795 1.97852,0.69727 1.97852,1.64795 0,0.25782 -0.14844,0.64161 -0.43946,1.1543 0,0 0.21875,0 0.21875,0 0,1.75781 0.41993,3.11279 1.26368,4.06494 0,0 2.36132,2.80078 2.36132,2.80078 0,0 -1.15234,4.01075 -1.15234,4.01075 0,0 0.60352,6.42626 0.60352,6.42626 0,0 -0.21875,1.81348 -0.21875,1.81348 0,0 1.42773,2.03174 1.42773,2.03174 0,0 0,2.80225 0,2.80225 0,0 0.43945,1.48242 0.43945,1.48242 0,0 -0.10937,0.54931 -0.10937,0.54931 0,0.95362 0.14453,2.67188 0.43945,5.16358 0,0 0,0.43945 0,0.43945 0,0.21973 0.35547,0.87891 1.07031,1.97754 0.7129,1.09863 1.38086,1.64795 2.00586,1.64795 1.5,0 2.36133,-0.42188 2.58204,-1.2627 0,0 0.54882,0.21973 0.54882,0.21973 0,0 0.21875,-0.54932 0.21875,-0.54932 1.79297,-0.65918 2.89258,-0.98876 3.29688,-0.98876 0,0 0,-0.43946 0,-0.43946 0,0 1.97656,-0.27539 1.97656,-0.27539 0,0 1.59375,-1.75781 1.59375,-1.75781 0.8418,-0.0366 1.66602,-0.78809 2.47266,-2.25147 1.09765,0 2.0664,-0.38525 2.91015,-1.15429 0,0 1.1543,-0.65918 1.1543,-0.65918 0,0 0.33008,-1.70215 0.33008,-1.70215 0.51172,0 1.37305,-0.29297 2.58008,-0.87891 0,0 0,-0.43945 0,-0.43945 1.24414,-0.14502 2.34375,-0.34717 3.29687,-0.60498 0,0 0.21875,-0.65918 0.21875,-0.65918 0,0 0.99024,-0.54932 0.99024,-0.54932 0,0 0.54882,-1.04297 0.54882,-1.04297 0,0 0.21875,0.27393 0.21875,0.27393 0.22071,-1.06055 0.89649,-2.0127 2.03321,-2.85645 0,0 -0.21875,-2.03173 -0.21875,-2.03173 0,0 0.21875,-0.98877 0.21875,-0.98877 z"
         id="path42" /></clipPath><linearGradient
       x1="0"
       y1="0"
       x2="1"
       y2="0"
       gradientUnits="userSpaceOnUse"
       gradientTransform="matrix(0,102.2832,-102.2832,0,297.229,-547.41455)"
       spreadMethod="pad"
       id="linearGradient48"><stop
         style="stop-opacity:1;stop-color:#f9a72b"
         offset="0"
         id="stop50" /><stop
         style="stop-opacity:1;stop-color:#f68712"
         offset="0.7"
         id="stop52" /><stop
         style="stop-opacity:1;stop-color:#654f2d"
         offset="1"
         id="stop54" /></linearGradient></defs><sodipodi:namedview
     pagecolor="#ffffff"
     bordercolor="#666666"
     borderopacity="1"
     objecttolerance="10"
     gridtolerance="10"
     guidetolerance="10"
     inkscape:pageopacity="0"
     inkscape:pageshadow="2"
     inkscape:window-width="1280"
     inkscape:window-height="975"
     id="namedview4"
     showgrid="false"
     inkscape:zoom="2.2060606"
     inkscape:cx="393.14791"
     inkscape:cy="517.28229"
     inkscape:window-x="0"
     inkscape:window-y="0"
     inkscape:window-maximized="1"
     inkscape:current-layer="g12" /><g
     id="g10"
     inkscape:groupmode="layer"
     inkscape:label="Cheetah_Ink"
     transform="matrix(1.25,0,0,-1.25,0,990)"><g
       id="g12"
       transform="scale(1,-1)"><path
         d="m 368.49316,-434.7915 c 0.0723,0.0605 0.11719,0.0957 0.11719,0.0957 0,0 -0.27734,-1.38184 -0.11719,-0.0957 z"
         style="fill:#000000;fill-opacity:1;fill-rule:nonzero;stroke:none"
         id="path22" /><path
         d="m 351.2998,-394.75586 c -0.63085,0.12598 -1.08593,0.67969 -1.08593,1.32422 0,2.43457 0.31054,8.20215 3.17383,9.15527 -0.0801,-0.0254 -0.15625,-0.0605 -0.22852,-0.10156 0.16797,0.0937 4.18164,2.25586 8.94922,-1.21289 0.44531,-0.32227 0.64844,-0.88477 0.51562,-1.41797 -0.30273,-1.20703 -1.08398,-4.64648 -1.08398,-6.04687 0,-0.62989 -0.43359,-1.17481 -1.04883,-1.31641 -0.20898,-0.0488 -5.20312,-1.18018 -9.19141,-0.38379 z"
         style="fill:#000000;fill-opacity:1;fill-rule:nonzero;stroke:none"
         id="path24" /><path
         d="m 231.36523,-415.01709 c 0,0 -32.625,4.87598 -32.625,4.87598 -0.12402,0.0176 -0.24511,0.0547 -0.35937,0.10547 0,0 -10.53906,4.79003 -11.71777,5.32617 -1.71289,-1.00782 -6.62403,-3.4043 -13.41407,-2.43457 -0.0508,0.008 -0.10058,0.0176 -0.15039,0.0312 -0.35937,0.0937 -8.87695,2.33593 -13.86621,5.40625 0,0.002 -0.002,0.002 -0.002,0.003 -0.0762,0.0264 -0.53418,0.17187 -1.91602,0.17187 -0.14453,0 -0.28906,0.0234 -0.42675,0.0684 -0.13477,0.0459 -3.1543,1.05762 -4.79786,1.83106 -0.57519,0.0488 -3.13769,0.1875 -6.82324,-0.7334 -0.51953,-0.13086 -1.07031,0.0586 -1.39551,0.4834 -0.74902,0.96972 -4.42675,5.97119 -3.24121,9.21142 0.30664,0.83594 1.05762,1.91602 2.90137,2.3086 0.28125,0.0605 0.57324,0.0293 0.83594,-0.0879 4.10254,-1.83789 11.34863,-4.75781 13.32226,-4.75781 0.14063,-0.006 6.2959,-0.34277 11.25489,1.07422 1.23046,0.34375 30.07519,8.3125 41.87695,6.02734 0.23633,-0.0469 2.31055,-0.51562 5.12207,-2.92382 0.1709,-0.12891 23.24902,-17.56983 35.64355,-15.4458 0.6836,0.11718 1.34375,-0.30176 1.52832,-0.96973 0.18555,-0.66797 -0.16503,-1.36816 -0.81152,-1.61914 0,0 -20.25,-7.875 -20.25,-7.875 -0.21875,-0.085 -0.45605,-0.11133 -0.68848,-0.0772 z"
         style="fill:#000000;fill-opacity:1;fill-rule:nonzero;stroke:none"
         id="path26" /><path
         d="m 366.41309,-438.43408 c 0,9.7e-4 0.002,9.7e-4 0.002,0.003 0,0.0684 -0.006,0.13574 -0.0176,0.20508 0.01,-0.0606 0.008,-0.14356 0.0156,-0.20801 z m -21.97071,-11.2461 c 0,0 0,-0.001 0,-0.001 0,0.001 0,0.001 -0.002,0.001 0.002,0 0,0 0.002,0 0,0 0,0 0,0 z m 0.11719,-0.1582 c -0.2168,0.12305 -0.84375,0.27832 -1.08984,0.33838 0,0 -0.4336,0.11279 -0.4336,0.11279 -1.81054,0.53174 -3.59765,0.73242 -5.62695,0.63135 0,0 -2.24219,-0.12012 -2.24219,-0.12012 0,0 -0.59375,-0.0483 -0.59375,-0.0483 -0.66406,-0.0644 -1.41601,-0.13916 -2.27148,0.11719 0,0 -1.72266,0.5669 -1.72266,0.5669 0,0 -0.8164,0.27832 -0.8164,0.27832 -0.002,0 -1.61524,0.35742 -1.61524,0.35742 -0.041,0.007 -1.82226,0.26074 -1.82226,0.26074 -2.20508,0.16846 -4.2129,0.91992 -6.1543,1.64795 0,0 -1.32227,0.48633 -1.32227,0.48633 0,0 -0.43554,0.18164 -0.46679,0.19531 -0.0215,9.8e-4 -0.0527,0.004 -0.0606,0.006 -0.0391,0.007 -4.06055,0.72656 -8.00781,0.72656 0.0742,0 0.14843,0.006 0.22168,0.0186 -0.65332,-0.1084 -3.33106,-0.0908 -10.3584,4.71679 -0.14844,0.1045 -13.93653,9.50391 -41.21875,9.14063 0,0 -1.47266,0.0644 -1.47266,0.0644 0,0 -1.07617,0.0586 -1.07617,0.0586 0,0 -6.20117,-0.10938 -6.20117,-0.10938 -3.65332,-0.14258 -6.6836,-0.38086 -9.53613,-0.75293 -3.6836,-0.48047 -7.3086,-1.25391 -10.7754,-2.29883 -3.9873,-1.20215 -7.91308,-2.79492 -11.27929,-4.19238 -1.53906,-0.63867 -2.91211,-0.86719 -4.62891,-1.02539 -1.90039,-0.17676 -4.05371,-0.37598 -6.22168,-0.43359 -4.14648,-0.1084 -7.95801,1.03125 -12.15527,2.41894 -5.21875,1.72559 -9.15918,3.15527 -12.77637,4.63281 -4.0293,1.64649 -7.64551,3.17578 -11.10449,5.20313 0,0 -0.84863,0.50879 -0.84863,0.50879 -0.80567,0.4873 -1.56739,0.94922 -2.38672,1.30957 -3.66602,1.61718 -7.92383,2.66308 -13.0166,3.20019 -1.98536,0.20996 -3.96778,0.35352 -5.89063,0.42676 0,0 -1.73926,0.11133 -1.73926,0.11133 -1.65234,0.12402 -3.52539,0.2666 -4.81152,-0.0762 -2.63574,-0.70313 -5.21387,-1.17969 -7.66309,-1.417 -1.55761,-0.15039 -3.69336,-0.35546 -5.40918,1.05762 -1.0791,0.88965 -2.88574,2.37793 -2.93261,4.40235 -0.0195,0.80078 0.24609,1.49218 0.44726,1.94335 0.16211,0.36329 1.04395,2.2002 2.49414,2.76172 0,0 0.94141,0.28223 0.94141,0.28223 0,0 0.63769,0.18652 0.63769,0.18652 1.94825,0.73633 4.18262,0.94043 6.30762,1.05176 1.50293,0.0791 3.16699,0.041 5.21778,-0.11426 1.54785,0.0684 24.66796,0.8877 41.83203,-9.13964 3.68945,-1.71094 11.60058,-5.04493 18.24902,-6.91504 -1.18262,0.77441 -2.31055,1.6123 -3.32715,2.55566 -1.27051,1.18262 -2.65332,2.59863 -3.27148,4.14844 -0.0293,0.0732 -2.97559,7.4209 -4.76563,10.28515 -0.0293,0.0469 -0.0566,0.0967 -0.0801,0.14746 -0.6123,1.31543 -2.36914,4.00098 -3.95507,4.07813 -1.63282,-0.33398 -12.12403,-1.99023 -22.02442,7.91016 -0.0488,0.0488 -1.14844,1.19824 -2.2832,3.33349 -2.04004,1.13672 -10.5918,6 -12.70996,8.65625 -1.35156,1.20703 -3.93653,3.16016 -5.27442,3.38281 -0.21875,0.0371 -0.43554,0.13477 -0.61132,0.27149 -0.15137,0.11523 -0.36329,0.21289 -0.50391,0.24805 -0.0166,-0.0312 -0.0342,-0.0645 -0.0342,-0.0645 -0.16797,-0.31836 -0.48535,-0.62109 -0.83008,-0.72656 -0.34473,-0.10352 -0.74609,-0.13086 -1.06348,0.0391 0,0 -4.875,2.625 -4.875,2.625 -0.34082,0.1836 -0.58593,0.50391 -0.67382,0.87891 -0.28711,1.21875 -1.56934,7.38672 1.31543,9.30859 0.25488,0.16992 0.56054,0.24805 0.86523,0.22071 0.92285,-0.0781 9.10254,-0.85157 12.31836,-3.26563 -0.0654,0.0488 -0.13477,0.0918 -0.20703,0.12891 0.38281,-0.19336 8.97851,-4.49805 12.45312,-6.89649 0.90235,0.0918 2.3086,-0.18359 4.32227,-1.91015 0.0225,-0.0195 0.0498,-0.0449 0.0703,-0.0645 0.0147,-0.0156 1.43457,-1.38281 2.95508,-1.13086 0.0732,0.0117 0.14746,0.0176 0.22168,0.0176 0.12402,0 2.93652,-0.0605 5.78418,-2.64844 1.54102,-0.0742 6.70312,-0.2871 9.44043,0.0176 0.10547,0.0117 0.21191,0.0117 0.31641,-0.002 0.33398,-0.043 3.07519,-0.45313 4.90918,-2.25 3.10351,-0.0762 18.29785,-0.88281 27.16308,-9.19775 4.29004,-2.08301 15.82129,-7.2334 20.18555,-7.28809 0.89746,0.14062 6.03906,0.8584 9.55859,0.14551 1.3584,2.0625 4.69336,6.59863 7.7666,6.59863 3.61524,0.14648 9.71192,0.63867 11.46875,1.3916 0.0303,0.0137 0.0605,0.0254 0.0918,0.0371 0.9043,0.31055 22.2168,7.51807 36.78223,1.15723 0.78906,-0.1543 6.51953,-1.38184 11.25976,-5.14649 0.14649,1.57911 0.65235,3.37696 2.06641,4.792 0.14648,0.14648 0.32617,0.25586 0.51953,0.32324 0.72852,0.24756 17.77734,5.97607 27.4707,3.83154 3.40039,0.28906 9.16211,0.99805 10.61133,1.72266 0.0312,0.0156 0.0625,0.0293 0.0957,0.043 0.55079,0.22461 13.58985,5.44336 21.17383,1.14257 2.79297,-1.58398 4.49024,-4.21289 5.04297,-7.81298 0.0781,-0.50293 -0.13476,-1.00782 -0.54883,-1.30372 -0.12695,-0.0898 -3.15039,-2.20507 -7.42383,-1.3496 -0.17578,0.0351 -0.35937,0.11425 -0.50585,0.21582 -0.084,0.0557 -2.07618,1.3623 -5.00196,-0.0996 -0.082,-0.041 -0.16601,-0.0733 -0.25586,-0.0967 -0.90039,-0.24024 -21.60547,-5.73047 -30.72656,-6.01953 -0.51953,-0.76758 -1.49414,-2.11231 -2.59961,-3.24903 1.58789,-1.88476 4.54102,-6.15918 4.54102,-11.84472 0,-1.20704 -0.17188,-2.49024 -0.48047,-3.81543 0.39453,-0.36817 1.20312,-0.91895 2.66797,-0.91895 0.0547,0 0.10937,-0.003 0.16211,-0.009 3.75,-0.44922 9.62109,-0.87988 11.00976,-0.43945 0.91992,0.4248 6.15625,2.73242 9.07422,1.89844 0.24805,-0.0762 5.28516,-1.70899 6.43555,-5.86524 0.35742,-0.47265 0.99609,-1.56543 0.99609,-3.39941 0,-0.37793 -0.0293,-0.78516 -0.0918,-1.22461 0,0 -0.10937,-0.80762 -0.10937,-0.80762 -0.0449,-0.3291 -0.22656,-0.67187 -0.48047,-0.88867 -0.39062,-0.33106 -1.71875,-1.53809 -3.11523,-3.41211 0.006,-0.1377 0.0273,-0.25195 0.0273,-0.40234 0,-2.23243 -0.92383,-5.69141 -4.55469,-7.50635 0.0312,0.0147 0.0625,0.0322 0.0918,0.0498 -0.13867,-0.0835 -3.00781,-1.79883 -5.30859,-2.7583 0.041,-0.61377 0.12109,-1.4209 0.29882,-2.13135 0.0274,-0.10839 0.041,-0.21826 0.041,-0.32812 0,-0.24902 -0.0703,-0.49512 -0.20313,-0.71045 -0.18945,-0.30908 -0.5,-0.52881 -0.85546,-0.60791 -0.5586,-0.12451 -2.92579,-0.54346 -4.66797,0.31934 -0.42774,-0.30323 -0.95508,-0.57422 -1.66797,-0.60205 -1.6875,-0.0688 -3.35352,1.15429 -5.08594,3.69433 z"
         style="fill:#000000;fill-opacity:1;fill-rule:nonzero;stroke:none"
         id="path28" /><path
         d="m 366.22168,-439.16943 c 0.0723,0.0596 0.11719,0.0947 0.11719,0.0947 0,0 -0.27735,-1.38086 -0.11719,-0.0947 z"
         style="fill:#000000;fill-opacity:1;fill-rule:nonzero;stroke:none"
         id="path66" /></g></g></svg>