<?xml version="1.0" encoding="utf-8"?>
<!-- Generator: Adobe Illustrator 13.0.0, SVG Export Plug-In . SVG Version: 6.00 Build 14948)  -->
<!DOCTYPE svg PUBLIC "-//W3C//DTD SVG 1.1//EN" "http://www.w3.org/Graphics/SVG/1.1/DTD/svg11.dtd">
<svg version="1.1" id="_x30_00_2_" xmlns="http://www.w3.org/2000/svg" xmlns:xlink="http://www.w3.org/1999/xlink" x="0px" y="0px"
	 width="4295.141px" height="1497.789px" viewBox="0 2.789 4295.141 1497.789" enable-background="new 0 2.789 4295.141 1497.789"
	 xml:space="preserve">
<g id="_x30_00_1_">
	<g enable-background="new    ">
		<path fill="#637B93" d="M1790.83,927.977h-75.48l-12.92-86.359h-91.8l-12.92,86.359h-68.681l76.16-476h109.48L1790.83,927.977z
			 M1620.15,777.017h72.08l-36.041-240.72L1620.15,777.017z"/>
		<path fill="#637B93" d="M2025.429,451.977c37.623,0,65.62,9.978,83.979,29.921c18.359,19.953,27.54,49.193,27.54,87.72v61.879
			c0,38.537-9.181,67.777-27.54,87.721c-18.359,19.953-46.356,29.92-83.979,29.92h-35.359v178.841h-74.801v-476L2025.429,451.977
			L2025.429,451.977z M1990.069,519.977v161.16h35.359c11.783,0,20.847-3.166,27.199-9.521c6.344-6.344,9.521-18.126,9.521-35.359
			v-71.4c0-17.223-3.177-29.006-9.521-35.359c-6.354-6.343-15.416-9.521-27.199-9.521H1990.069L1990.069,519.977z"/>
		<path fill="#637B93" d="M2336.188,652.576h102.681v68h-102.681v139.399h129.2v68h-204v-476h204v68h-129.2V652.576z"/>
		<path fill="#637B93" d="M2757.784,927.977c-0.913-3.166-1.816-6.119-2.72-8.84c-0.914-2.72-1.7-6.12-2.381-10.2
			c-0.68-4.08-1.137-9.285-1.359-15.64c-0.233-6.344-0.34-14.28-0.34-23.801v-74.8c0-22.206-3.856-37.847-11.561-46.92
			c-7.714-9.063-20.177-13.601-37.4-13.601h-25.84v193.8h-74.8v-476h112.88c38.982,0,67.203,9.074,84.66,27.2
			c17.445,18.137,26.18,45.561,26.18,82.28v37.4c0,48.96-16.32,81.153-48.96,96.561c19.04,7.713,32.065,20.293,39.101,37.739
			c7.022,17.457,10.539,38.653,10.539,63.58v73.439c0,11.794,0.446,22.101,1.36,30.939c0.903,8.841,3.166,17.797,6.8,26.859h-76.159
			V927.977z M2676.186,519.977v146.2h29.239c14.046,0,25.043-3.623,32.979-10.88c7.927-7.246,11.899-20.399,11.899-39.439v-46.921
			c0-17.223-3.061-29.686-9.18-37.399c-6.12-7.703-15.757-11.561-28.899-11.561H2676.186z"/>
		<path fill="#637B93" d="M2944.1,451.977h231.2v68h-78.2v408h-74.8v-408h-78.2V451.977z"/>
		<path fill="#637B93" d="M3370.45,451.977v367.2c0,17.233,3.507,29.24,10.54,36.04c7.022,6.8,16.427,10.2,28.221,10.2
			c11.783,0,21.186-3.4,28.22-10.2c7.023-6.8,10.54-18.807,10.54-36.04v-367.2h70.721v362.44c0,38.536-9.414,68.116-28.221,88.739
			c-18.816,20.634-46.58,30.939-83.3,30.939c-36.721,0-64.494-10.307-83.301-30.939c-18.816-20.623-28.22-50.203-28.22-88.739
			v-362.44H3370.45z"/>
		<path fill="#637B93" d="M3815.847,927.977c-0.913-3.166-1.815-6.119-2.72-8.84c-0.914-2.72-1.7-6.12-2.38-10.2
			s-1.137-9.285-1.36-15.64c-0.232-6.344-0.34-14.28-0.34-23.801v-74.8c0-22.206-3.855-37.847-11.561-46.92
			c-7.714-9.063-20.177-13.601-37.399-13.601h-25.84v193.8h-74.8v-476h112.879c38.983,0,67.203,9.074,84.66,27.2
			c17.446,18.137,26.18,45.561,26.18,82.28v37.4c0,48.96-16.319,81.153-48.959,96.561c19.039,7.713,32.065,20.293,39.1,37.739
			c7.023,17.457,10.54,38.653,10.54,63.58v73.439c0,11.794,0.446,22.101,1.36,30.939c0.902,8.841,3.166,17.797,6.8,26.859h-76.16
			V927.977z M3734.247,519.977v146.2h29.24c14.046,0,25.043-3.623,32.979-10.88c7.927-7.246,11.9-20.399,11.9-39.439v-46.921
			c0-17.223-3.062-29.686-9.181-37.399c-6.119-7.703-15.757-11.561-28.899-11.561H3734.247z"/>
		<path fill="#637B93" d="M4097.361,652.576h102.681v68h-102.681v139.399h129.201v68h-204v-476h204v68h-129.201V652.576z"/>
	</g>
	<g enable-background="new    ">
		<path fill="#637B93" d="M1517.63,1053.715c0-17.847,4.252-31.549,12.757-41.106c8.505-9.555,21.264-14.332,38.273-14.332
			s29.767,4.777,38.271,14.332c8.505,9.559,12.757,23.261,12.757,41.106v8.505h-32.76v-10.71c0-7.979-1.526-13.594-4.567-16.853
			c-3.047-3.253-7.3-4.882-12.758-4.882c-5.463,0-9.716,1.629-12.757,4.882c-3.047,3.259-4.567,8.874-4.567,16.853
			c0,7.562,1.679,14.229,5.04,20.003c3.356,5.778,7.56,11.236,12.6,16.381c5.04,5.147,10.444,10.291,16.223,15.435
			c5.773,5.147,11.183,10.765,16.223,16.853c5.04,6.095,9.239,13.023,12.6,20.791c3.357,7.771,5.04,16.906,5.04,27.404
			c0,17.853-4.361,31.555-13.072,41.107c-8.717,9.559-21.578,14.332-38.588,14.332s-29.875-4.773-38.587-14.332
			c-8.716-9.554-13.072-23.256-13.072-41.107v-15.12h32.761v17.325c0,7.983,1.625,13.545,4.883,16.695
			c3.253,3.148,7.609,4.725,13.072,4.725c5.458,0,9.813-1.575,13.072-4.725c3.254-3.15,4.883-8.712,4.883-16.695
			c0-7.561-1.684-14.225-5.041-20.003c-3.361-5.772-7.56-11.231-12.6-16.38c-5.04-5.145-10.449-10.286-16.222-15.436
			c-5.778-5.144-11.184-10.76-16.224-16.853c-5.04-6.089-9.242-13.02-12.6-20.79
			C1519.308,1073.354,1517.63,1064.218,1517.63,1053.715z"/>
		<path fill="#637B93" d="M1779.077,1139.08v29.295c0,17.853-4.361,31.554-13.072,41.107c-8.717,9.559-21.578,14.332-38.588,14.332
			s-29.875-4.773-38.587-14.332c-8.716-9.555-13.072-23.257-13.072-41.107v-114.66c0-17.847,4.356-31.549,13.072-41.106
			c8.712-9.555,21.578-14.332,38.587-14.332c17.01,0,29.871,4.777,38.588,14.332c8.711,9.559,13.072,23.261,13.072,41.106v21.42
			h-32.76v-23.625c0-7.979-1.63-13.594-4.884-16.853c-3.258-3.253-7.613-4.882-13.071-4.882c-5.464,0-9.819,1.629-13.073,4.882
			c-3.258,3.259-4.882,8.874-4.882,16.853v119.07c0,7.983,1.624,13.545,4.882,16.694c3.253,3.149,7.609,4.726,13.073,4.726
			c5.458,0,9.813-1.575,13.071-4.726c3.254-3.149,4.884-8.712,4.884-16.694v-31.5H1779.077z"/>
		<path fill="#637B93" d="M1838.923,1000.795h34.65v220.5h-34.65V1000.795z"/>
		<path fill="#637B93" d="M1972.164,1093.72h47.564v31.5h-47.564v64.575h59.85v31.5h-94.5v-220.5h94.5v31.5h-59.85V1093.72z"/>
		<path fill="#637B93" d="M2123.048,1061.59v159.705h-31.185v-220.5h43.47l35.595,131.985v-131.985h30.87v220.5h-35.595
			L2123.048,1061.59z"/>
		<path fill="#637B93" d="M2365.908,1139.08v29.295c0,17.853-4.36,31.554-13.072,41.107c-8.717,9.559-21.578,14.332-38.588,14.332
			s-29.876-4.773-38.587-14.332c-8.717-9.555-13.073-23.257-13.073-41.107v-114.66c0-17.847,4.356-31.549,13.073-41.106
			c8.711-9.555,21.577-14.332,38.587-14.332s29.871,4.777,38.588,14.332c8.712,9.559,13.072,23.261,13.072,41.106v21.42h-32.76
			v-23.625c0-7.979-1.629-13.594-4.884-16.853c-3.258-3.253-7.614-4.882-13.071-4.882c-5.465,0-9.819,1.629-13.072,4.882
			c-3.26,3.259-4.883,8.874-4.883,16.853v119.07c0,7.983,1.623,13.545,4.883,16.694c3.253,3.149,7.607,4.726,13.072,4.726
			c5.457,0,9.813-1.575,13.071-4.726c3.254-3.149,4.884-8.712,4.884-16.694v-31.5H2365.908z"/>
		<path fill="#637B93" d="M2460.405,1093.72h47.564v31.5h-47.564v64.575h59.85v31.5h-94.5v-220.5h94.5v31.5h-59.85V1093.72z"/>
		<path fill="#637B93" d="M2667.988,1000.795h34.649v220.5h-34.649V1000.795z"/>
		<path fill="#637B93" d="M2797.448,1061.59v159.705h-31.186v-220.5h43.47l35.596,131.985v-131.985h30.87v220.5h-35.595
			L2797.448,1061.59z"/>
		<path fill="#637B93" d="M2970.695,1061.59v159.705h-31.186v-220.5h43.471l35.595,131.985v-131.985h30.87v220.5h-35.596
			L2970.695,1061.59z"/>
		<path fill="#637B93" d="M3110.236,1053.715c0-17.847,4.514-31.549,13.545-41.106c9.027-9.555,22.051-14.332,39.061-14.332
			s30.028,4.777,39.061,14.332c9.027,9.559,13.545,23.261,13.545,41.106v114.66c0,17.853-4.519,31.554-13.545,41.107
			c-9.031,9.559-22.051,14.332-39.061,14.332s-30.033-4.773-39.061-14.332c-9.031-9.555-13.545-23.257-13.545-41.107V1053.715z
			 M3144.886,1170.58c0,7.983,1.624,13.599,4.884,16.853c3.252,3.259,7.607,4.883,13.071,4.883c5.458,0,9.814-1.625,13.072-4.883
			c3.254-3.254,4.883-8.869,4.883-16.853v-119.07c0-7.979-1.629-13.594-4.883-16.853c-3.258-3.253-7.614-4.882-13.072-4.882
			c-5.464,0-9.819,1.629-13.071,4.882c-3.26,3.259-4.884,8.874-4.884,16.853V1170.58z"/>
		<path fill="#637B93" d="M3328.531,1180.66l26.46-179.865h31.814l-34.021,220.5h-51.659l-34.021-220.5h34.965L3328.531,1180.66z"/>
		<path fill="#637B93" d="M3545.881,1221.295h-34.965l-5.985-40.005h-42.524l-5.984,40.005h-31.814l35.279-220.5h50.716
			L3545.881,1221.295z M3466.816,1151.365h33.391l-16.695-111.511L3466.816,1151.365z"/>
		<path fill="#637B93" d="M3591.24,1000.795h107.1v31.5h-36.225v189h-34.65v-189h-36.225V1000.795z"/>
		<path fill="#637B93" d="M3749.995,1053.715c0-17.847,4.514-31.549,13.545-41.106c9.027-9.555,22.051-14.332,39.062-14.332
			c17.01,0,30.027,4.777,39.06,14.332c9.027,9.559,13.545,23.261,13.545,41.106v114.66c0,17.853-4.519,31.554-13.545,41.107
			c-9.031,9.559-22.05,14.332-39.06,14.332c-17.011,0-30.033-4.773-39.062-14.332c-9.031-9.555-13.545-23.257-13.545-41.107
			V1053.715z M3784.646,1170.58c0,7.983,1.623,13.599,4.883,16.853c3.253,3.259,7.607,4.883,13.072,4.883
			c5.457,0,9.813-1.625,13.071-4.883c3.254-3.254,4.884-8.869,4.884-16.853v-119.07c0-7.979-1.629-13.594-4.884-16.853
			c-3.258-3.253-7.614-4.882-13.071-4.882c-5.465,0-9.819,1.629-13.072,4.882c-3.26,3.259-4.883,8.874-4.883,16.853V1170.58z"/>
		<path fill="#637B93" d="M3988.765,1221.295c-0.423-1.467-0.842-2.835-1.26-4.095c-0.423-1.261-0.787-2.835-1.103-4.727
			c-0.315-1.89-0.526-4.302-0.631-7.244c-0.107-2.938-0.156-6.614-0.156-11.024v-34.65c0-10.286-1.787-17.53-5.355-21.733
			c-3.572-4.199-9.347-6.301-17.324-6.301h-11.971v89.774h-34.649v-220.5h52.29c18.059,0,31.131,4.203,39.218,12.601
			c8.082,8.401,12.128,21.104,12.128,38.114v17.325c0,22.68-7.561,37.593-22.681,44.729c8.819,3.574,14.854,9.401,18.112,17.483
			c3.254,8.086,4.883,17.905,4.883,29.452v34.02c0,5.465,0.207,10.238,0.63,14.334c0.419,4.095,1.467,8.243,3.149,12.441
			L3988.765,1221.295L3988.765,1221.295z M3950.965,1032.295v67.726h13.545c6.508,0,11.602-1.679,15.277-5.041
			c3.672-3.355,5.513-9.448,5.513-18.27v-21.735c0-7.979-1.417-13.751-4.253-17.323c-2.835-3.568-7.299-5.355-13.387-5.355
			L3950.965,1032.295L3950.965,1032.295z"/>
		<path fill="#637B93" d="M4077.278,1053.715c0-17.847,4.252-31.549,12.757-41.106c8.505-9.555,21.262-14.332,38.271-14.332
			c17.012,0,29.769,4.777,38.272,14.332c8.505,9.559,12.758,23.261,12.758,41.106v8.505h-32.76v-10.71
			c0-7.979-1.526-13.594-4.567-16.853c-3.047-3.253-7.299-4.882-12.758-4.882c-5.463,0-9.715,1.629-12.758,4.882
			c-3.045,3.259-4.566,8.874-4.566,16.853c0,7.562,1.68,14.229,5.04,20.003c3.356,5.778,7.562,11.236,12.601,16.381
			c5.039,5.147,10.443,10.291,16.223,15.435c5.773,5.147,11.184,10.765,16.223,16.853c5.041,6.095,9.238,13.023,12.602,20.791
			c3.355,7.771,5.04,16.906,5.04,27.404c0,17.853-4.36,31.555-13.073,41.107c-8.717,9.559-21.577,14.332-38.587,14.332
			c-17.011,0-29.876-4.773-38.588-14.332c-8.717-9.554-13.072-23.256-13.072-41.107v-15.12h32.761v17.325
			c0,7.983,1.623,13.545,4.883,16.695c3.252,3.148,7.608,4.725,13.071,4.725c5.458,0,9.813-1.575,13.071-4.725
			c3.254-3.15,4.883-8.712,4.883-16.695c0-7.561-1.684-14.225-5.039-20.003c-3.361-5.772-7.561-11.231-12.601-16.38
			c-5.04-5.145-10.449-10.286-16.224-15.436c-5.777-5.144-11.183-10.76-16.222-16.853c-5.04-6.089-9.243-13.02-12.6-20.79
			C4078.955,1073.354,4077.278,1064.218,4077.278,1053.715z"/>
	</g>
</g>
<g id="_x30_00">
	<g>
		<g id="_x30_0_4_">
			<g>
				<path fill="none" stroke="#637B93" stroke-width="24" d="M871.664,682.51c103.576,178.177,131.751,355.046,62.931,395.056
					c-68.819,40.008-208.582-71.998-312.159-250.176c-103.577-178.177-131.748-355.05-62.928-395.06
					C628.328,392.327,768.086,504.333,871.664,682.51z"/>
				<path fill="none" stroke="#637B93" stroke-width="24" d="M871.723,827.289c-103.438,178.262-243.104,290.379-311.957,250.428
					c-68.853-39.951-40.823-216.852,62.606-395.107c103.438-178.26,243.104-290.375,311.96-250.426
					C1003.187,472.137,975.156,649.034,871.723,827.289z"/>
				<path fill="none" stroke="#637B93" stroke-width="24" d="M747.926,899.092c-206.099-0.18-373.112-64.854-373.044-144.459
					c0.064-79.603,167.191-144,373.288-143.824c206.096,0.176,373.109,64.854,373.046,144.458
					C1121.147,834.873,954.019,899.266,747.926,899.092z"/>
			</g>
			<g id="Layer_3_1_">
				<circle fill="#637B93" cx="747.051" cy="755.092" r="47.5"/>
			</g>
		</g>
		<g id="_x30_0_3_">
			<g>
				<g>
					<path fill="#637B93" d="M788.404,1145.604v294.793c169.561-9.967,322.608-81.338,437.235-192.199l-435.636-102.771
						C789.47,1145.48,788.939,1145.549,788.404,1145.604z M788.404,86.502v275.115c83.378,8.406,159.064,42.828,218.869,94.998
						L788.404,86.502z M1140.461,714.481l110.769-400.207l-197.142,190.748C1101.562,563.329,1132.67,635.479,1140.461,714.481z
						 M816.659,1141.695l396.487,93.535l-191.43-197.844C966.414,1090.666,895.568,1127.912,816.659,1141.695z M445.957,501.1
						L77.841,743.489h276.69C356.855,651.346,390.818,567.069,445.957,501.1z M517.252,1072.701l241.229,351.463V1147.48
						c-3.352,0.084-6.709,0.127-10.078,0.127C662.045,1147.611,582.181,1119.82,517.252,1072.701z M358.283,808.984l-88.938,413.695
						l198.698-192.252C410.02,971.668,370.348,894.758,358.283,808.984z M720.167,360.622L304.104,252.69l191.927,198.357
						C557.628,399.61,635.174,366.641,720.167,360.622z M1034.311,482.522l210.775-203.938
						C1128.615,156.592,967.741,77.369,788.404,66.828v0.522l244.902,414.141C1033.64,481.834,1033.98,482.172,1034.311,482.522z
						 M473.752,471.124c0.012-0.01,0.021-0.021,0.034-0.033L268.873,259.307C141.957,382.198,62.224,553.522,59.484,743.489h0.633
						L473.752,471.124z M354.895,773.408H59.694c5.078,179.738,79.092,342.225,196.542,461.955l0.518-0.5l98.378-457.611
						C355.055,775.971,354.959,774.695,354.895,773.408z M489.878,1050.934l-212.224,205.342
						c122.963,114.961,288.136,185.336,469.749,185.336c3.7,0,7.393-0.041,11.078-0.1v-0.119l-267.138-389.211
						C490.859,1051.764,490.362,1051.355,489.878,1050.934z M1435.323,743.489c-2.444-169.496-66.187-324.152-170.044-442.809
						l-0.231,0.227l-122.498,442.582H1435.323z M1042.484,1015.816l204.243,211.09c112.658-118.813,183.356-277.803,188.378-453.244
						l-392.315,241.805C1042.685,1015.584,1042.585,1015.701,1042.484,1015.816z M1061.939,992.213l354.995-218.803h-275.021
						C1137.851,855.457,1108.678,930.889,1061.939,992.213z M290.811,238.95l0.284,0.294L755.364,359.68
						c1.041,0.02,2.082,0.031,3.118,0.061V65.709c-3.687-0.058-7.378-0.098-11.077-0.098
						C572.193,65.612,412.281,131.107,290.811,238.95z"/>
				</g>
			</g>
			<g id="Layer_1_1_">
				<g id="bg_1_" display="none">
					<rect x="-323.328" y="-245.945" display="inline" fill="#FFFFFF" width="2145.214" height="2471.623"/>
				</g>
				<g id="external_rectangle_1_" display="none">
					<path display="inline" fill="none" stroke="#637B93" stroke-width="68" d="M-249.323,1462.941
						c0-7.918,5.539-14.338,12.371-14.338h1976.458c6.834,0,12.373,6.42,12.373,14.338v670.396c0,7.92-5.539,14.34-12.373,14.34
						H-236.952c-6.833,0-12.371-6.42-12.371-14.34V1462.941z"/>
				</g>
				<g id="external_circle_1_" display="none">
					<circle display="inline" fill="#FFFFFF" stroke="#637B93" stroke-width="68" cx="748.928" cy="760.725" r="810"/>
				</g>
				<g id="rectangle_bg_bas_1_" display="none">
					<path display="inline" fill="#FFFFFF" d="M-246.071,2096.574c0,9.934,12.215,17.982,27.28,17.982h1941.437
						c15.064,0,27.277-8.055,27.277-17.982v-596.527c0-9.938-12.213-17.984-27.277-17.984H-218.789
						c-15.065,0-27.28,8.057-27.28,17.984L-246.071,2096.574L-246.071,2096.574z"/>
				</g>
				<g id="text_bas_1_">
					<g display="none" enable-background="new    ">
						<path display="inline" fill="#637B93" d="M-154.047,1928.391c0-12.066,2.875-21.332,8.626-27.795
							c5.751-6.461,14.377-9.691,25.879-9.691s20.128,3.23,25.879,9.691c5.751,6.463,8.626,15.729,8.626,27.795v5.752h-22.152
							v-7.242c0-5.395-1.031-9.189-3.088-11.395c-2.06-2.201-4.936-3.303-8.626-3.303c-3.694,0-6.569,1.102-8.626,3.303
							c-2.061,2.203-3.089,6-3.089,11.395c0,5.111,1.136,9.621,3.408,13.525c2.271,3.908,5.112,7.598,8.521,11.076
							c3.407,3.479,7.063,6.959,10.969,10.438c3.904,3.48,7.562,7.277,10.97,11.396c3.407,4.117,6.247,8.807,8.521,14.057
							c2.27,5.256,3.407,11.434,3.407,18.531c0,12.072-2.948,21.338-8.84,27.797c-5.894,6.463-14.59,9.691-26.092,9.691
							c-11.503,0-20.202-3.23-26.093-9.691c-5.895-6.459-8.84-15.725-8.84-27.797v-10.229h22.152v11.721
							c0,5.395,1.1,9.152,3.303,11.289c2.199,2.129,5.145,3.189,8.838,3.189c3.691,0,6.637-1.063,8.84-3.189
							c2.201-2.137,3.302-5.896,3.302-11.289c0-5.113-1.138-9.619-3.408-13.525c-2.272-3.904-5.112-7.596-8.521-11.076
							c-3.408-3.479-7.064-6.957-10.969-10.438c-3.906-3.48-7.562-7.275-10.97-11.396c-3.408-4.115-6.25-8.803-8.521-14.059
							C-152.913,1941.672-154.047,1935.494-154.047,1928.391z"/>
						<path display="inline" fill="#637B93" d="M20.397,1986.115v19.811c0,12.07-2.945,21.336-8.839,27.797
							c-5.894,6.463-14.59,9.691-26.092,9.691s-20.202-3.23-26.093-9.691c-5.894-6.461-8.839-15.727-8.839-27.797v-77.533
							c0-12.063,2.945-21.332,8.839-27.795c5.891-6.461,14.591-9.688,26.093-9.688s20.198,3.229,26.092,9.688
							c5.895,6.463,8.839,15.73,8.839,27.795v14.484H-1.751v-15.979c0-5.395-1.104-9.188-3.301-11.395
							c-2.204-2.201-5.149-3.303-8.844-3.303c-3.691,0-6.64,1.102-8.839,3.303c-2.203,2.203-3.301,6-3.301,11.395v80.518
							c0,5.395,1.098,9.158,3.301,11.289c2.2,2.129,5.146,3.193,8.839,3.193c3.691,0,6.64-1.064,8.844-3.193
							c2.196-2.131,3.301-5.895,3.301-11.289v-21.301H20.397L20.397,1986.115z"/>
						<path display="inline" fill="#637B93" d="M58.521,1892.607h23.434v149.102H58.521V1892.607z"/>
						<path display="inline" fill="#637B93" d="M146.274,1955.443h32.163v21.301h-32.163v43.664h40.474v21.301h-63.9v-149.102h63.9
							v21.303h-40.473L146.274,1955.443L146.274,1955.443z"/>
						<path display="inline" fill="#637B93" d="M245.958,1933.717v107.99h-21.087v-149.105h29.394l24.069,89.248v-89.248h20.874
							v149.105h-24.069L245.958,1933.717z"/>
						<path display="inline" fill="#637B93" d="M407.835,1986.115v19.811c0,12.07-2.948,21.336-8.839,27.797
							c-5.896,6.463-14.591,9.691-26.093,9.691c-11.506,0-20.202-3.23-26.097-9.691c-5.894-6.461-8.84-15.727-8.84-27.797v-77.533
							c0-12.063,2.946-21.332,8.84-27.795c5.895-6.461,14.592-9.688,26.097-9.688c11.502,0,20.194,3.229,26.093,9.688
							c5.891,6.463,8.839,15.73,8.839,27.795v14.484h-22.151v-15.979c0-5.395-1.102-9.188-3.302-11.395
							c-2.203-2.201-5.148-3.303-8.84-3.303c-3.694,0-6.644,1.102-8.839,3.303c-2.204,2.203-3.306,6-3.306,11.395v80.518
							c0,5.395,1.102,9.158,3.306,11.289c2.195,2.129,5.145,3.193,8.839,3.193c3.688,0,6.637-1.064,8.84-3.193
							c2.2-2.131,3.302-5.895,3.302-11.289v-21.301H407.835L407.835,1986.115z"/>
						<path display="inline" fill="#637B93" d="M469.389,1955.443h32.163v21.301h-32.163v43.664h40.473v21.301h-63.899v-149.102
							h63.899v21.303h-40.473V1955.443L469.389,1955.443z"/>
						<path display="inline" fill="#637B93" d="M605.07,1892.607H628.5v149.102H605.07V1892.607L605.07,1892.607z"/>
						<path display="inline" fill="#637B93" d="M690.267,1933.717v107.99h-21.088v-149.105h29.396l24.065,89.248v-89.248h20.873
							v149.105H719.45L690.267,1933.717z"/>
						<path display="inline" fill="#637B93" d="M805.071,1933.717v107.99h-21.089v-149.105h29.396l24.066,89.248v-89.248h20.875
							v149.105H834.25L805.071,1933.717z"/>
						<path display="inline" fill="#637B93" d="M897.083,1928.391c0-12.066,3.053-21.332,9.16-27.795
							c6.104-6.461,14.91-9.691,26.412-9.691s20.305,3.23,26.409,9.691c6.104,6.463,9.157,15.729,9.157,27.795v77.533
							c0,12.07-3.055,21.336-9.157,27.797c-6.104,6.463-14.907,9.691-26.409,9.691c-11.503,0-20.313-3.23-26.412-9.691
							c-6.107-6.461-9.16-15.727-9.16-27.797V1928.391z M920.514,2007.416c0,5.395,1.1,9.193,3.302,11.395
							c2.198,2.203,5.146,3.305,8.841,3.305c3.689,0,6.639-1.102,8.842-3.305c2.197-2.197,3.301-5.996,3.301-11.395v-80.518
							c0-5.395-1.104-9.189-3.301-11.395c-2.203-2.199-5.148-3.303-8.842-3.303c-3.694,0-6.643,1.104-8.841,3.303
							c-2.202,2.203-3.302,6-3.302,11.395V2007.416z"/>
						<path display="inline" fill="#637B93" d="M1042.35,2014.23l17.896-121.623h21.514l-23.004,149.102h-34.937l-23.005-149.102
							h23.646L1042.35,2014.23z"/>
						<path display="inline" fill="#637B93" d="M1186.977,2041.709h-23.643l-4.047-27.053h-28.754l-4.047,27.053h-21.516
							l23.855-149.104h34.293L1186.977,2041.709z M1133.514,1994.422h22.578l-11.289-75.402L1133.514,1994.422z"/>
						<path display="inline" fill="#637B93" d="M1215.305,1892.607h72.42v21.301h-24.493v127.801h-23.431v-127.801h-24.496V1892.607
							z"/>
						<path display="inline" fill="#637B93" d="M1320.311,1928.391c0-12.066,3.057-21.332,9.16-27.795
							c6.104-6.461,14.91-9.691,26.412-9.691s20.306,3.23,26.412,9.691c6.104,6.463,9.158,15.729,9.158,27.795v77.533
							c0,12.07-3.059,21.336-9.158,27.797c-6.107,6.463-14.91,9.691-26.412,9.691s-20.309-3.23-26.412-9.691
							s-9.16-15.727-9.16-27.797V1928.391z M1343.743,2007.416c0,5.395,1.098,9.193,3.303,11.395
							c2.199,2.203,5.146,3.305,8.838,3.305c3.691,0,6.637-1.102,8.84-3.305c2.201-2.197,3.304-5.996,3.304-11.395v-80.518
							c0-5.395-1.103-9.189-3.304-11.395c-2.203-2.199-5.146-3.303-8.84-3.303s-6.639,1.104-8.838,3.303
							c-2.205,2.203-3.303,6-3.303,11.395V2007.416z"/>
						<path display="inline" fill="#637B93" d="M1479.422,2041.709c-0.287-0.992-0.57-1.918-0.854-2.771
							c-0.283-0.852-0.529-1.916-0.742-3.193c-0.217-1.275-0.355-2.906-0.43-4.896c-0.07-1.986-0.104-4.473-0.104-7.455v-23.43
							c0-6.957-1.207-11.855-3.621-14.697c-2.416-2.84-6.32-4.26-11.715-4.26h-8.094v60.705h-23.434v-149.104h35.357
							c12.211,0,21.051,2.844,26.52,8.521c5.465,5.682,8.199,14.27,8.199,25.77v11.721c0,15.336-5.109,25.42-15.336,30.246
							c5.965,2.416,10.045,6.354,12.248,11.814c2.199,5.473,3.301,12.107,3.301,19.916v23.004c0,3.693,0.145,6.926,0.428,9.691
							c0.281,2.77,0.99,5.574,2.133,8.414L1479.422,2041.709L1479.422,2041.709z M1453.861,1913.908v45.795h9.157
							c4.4,0,7.847-1.135,10.33-3.406c2.482-2.27,3.73-6.391,3.73-12.354v-14.695c0-5.396-0.959-9.301-2.877-11.717
							c-1.916-2.41-4.938-3.619-9.055-3.619h-11.288v-0.004H1453.861z"/>
						<path display="inline" fill="#637B93" d="M1536.93,1928.391c0-12.066,2.875-21.332,8.627-27.795
							c5.75-6.461,14.377-9.691,25.879-9.691c11.503,0,20.13,3.23,25.882,9.691c5.75,6.463,8.625,15.729,8.625,27.795v5.752h-22.147
							v-7.242c0-5.395-1.033-9.189-3.09-11.395c-2.063-2.201-4.938-3.303-8.627-3.303c-3.693,0-6.568,1.102-8.625,3.303
							c-2.063,2.203-3.09,6-3.09,11.395c0,5.111,1.135,9.621,3.405,13.525c2.271,3.908,5.112,7.598,8.521,11.076
							c3.408,3.477,7.063,6.959,10.969,10.438c3.904,3.48,7.564,7.277,10.973,11.396c3.406,4.117,6.244,8.807,8.521,14.057
							c2.271,5.256,3.406,11.434,3.406,18.531c0,12.072-2.947,21.338-8.84,27.797c-5.896,6.463-14.593,9.691-26.095,9.691
							s-20.201-3.23-26.093-9.691c-5.896-6.459-8.84-15.725-8.84-27.797v-10.229h22.15v11.721c0,5.395,1.1,9.152,3.303,11.289
							c2.199,2.129,5.146,3.189,8.84,3.189c3.689,0,6.637-1.063,8.84-3.189c2.199-2.137,3.302-5.896,3.302-11.289
							c0-5.113-1.14-9.619-3.405-13.525c-2.271-3.904-5.111-7.596-8.521-11.076c-3.407-3.479-7.063-6.957-10.969-10.438
							c-3.908-3.48-7.563-7.275-10.974-11.396c-3.405-4.115-6.25-8.803-8.521-14.059
							C1538.066,1941.672,1536.93,1935.494,1536.93,1928.391z"/>
					</g>
				</g>
				<g id="circle_center_1_" display="none">
					<circle display="inline" fill="none" stroke="#637B93" stroke-width="293" cx="749.094" cy="752.851" r="540.053"/>
				</g>
				<g id="lines_center_big_1_" display="none">
					<g display="inline">
						<line fill="none" stroke="#FFFFFF" stroke-width="30" x1="774.928" y1="31.725" x2="774.928" y2="1501.725"/>
						<line fill="none" stroke="#FFFFFF" stroke-width="30" x1="1488.928" y1="756.725" x2="18.926" y2="756.725"/>
						<line fill="none" stroke="#FFFFFF" stroke-width="30" x1="1293.936" y1="1294.018" x2="271.917" y2="237.432"/>
						<line fill="none" stroke="#FFFFFF" stroke-width="30" x1="230.633" y1="1281.734" x2="1287.219" y2="259.713"/>
					</g>
				</g>
				<g id="lines_center_small_1_" display="none">
					<line display="inline" fill="none" stroke="#1131A5" stroke-width="10" x1="272.927" y1="243.725" x2="778.928" y2="363.725"/>
					
						<line display="inline" fill="none" stroke="#1131A5" stroke-width="10" x1="767.928" y1="1145.725" x2="1273.928" y2="1265.725"/>
					<g display="inline">
						<line fill="none" stroke="#FFFFFF" stroke-width="10" x1="784.297" y1="45.625" x2="1037.557" y2="499.825"/>
						<line fill="none" stroke="#FFFFFF" stroke-width="10" x1="481.098" y1="1025.541" x2="793.465" y2="1495.369"/>
						<line fill="none" stroke="#FFFFFF" stroke-width="10" x1="480.784" y1="469.901" x2="41.072" y2="747.547"/>
						<line fill="none" stroke="#FFFFFF" stroke-width="10" x1="1508.928" y1="731.725" x2="1024.359" y2="1021.469"/>
						<line fill="none" stroke="#FFFFFF" stroke-width="10" x1="1284.657" y1="265.286" x2="1131.198" y2="762.162"/>
						<line fill="none" stroke="#FFFFFF" stroke-width="10" x1="366.927" y1="745.723" x2="246.927" y2="1251.723"/>
						<line fill="none" stroke="#FFFFFF" stroke-width="10" x1="1300.37" y1="1272.404" x2="761.77" y2="1132.238"/>
						<line fill="none" stroke="#FFFFFF" stroke-width="10" x1="763.762" y1="366.409" x2="263.907" y2="222.946"/>
					</g>
				</g>
			</g>
		</g>
	</g>
</g>
</svg>
